/* XPM */
static char *_5fbd9bd45d5482484312e67fe0d995eD0fyppzzMbt3VPd8[] = {
/* columns rows colors chars-per-pixel */
"60 60 6 1 ",
"  c None",
". c #826F03",
"X c #AD820A",
"o c #D9A518",
"O c #F7CA00",
"+ c white",
/* pixels */
"                 ooooOOOO+++++++++++++++                    ",
"                 ooooOOOO+++++++++++++++                    ",
"                 ooooOOOO+++++++++++++++                    ",
"             ooooOOOOOOOOOOOOOOOOOOOOOOO+++++++             ",
"             ooooOOOOOOOOOOOOOOOOOOOOOOO+++++++             ",
"             ooooOOOOOOOOOOOOOOOOOOOOOOO+++++++             ",
"             ooooOOOOOOOOOOOOOOOOOOOOOOO+++++++             ",
"         ooooOOOOOOOOXXXX...........ooooOOOO+++++++         ",
"         ooooOOOOOOOOXXXX...........ooooOOOO+++++++         ",
"         ooooOOOOOOOOXXXX...........ooooOOOO+++++++         ",
"         ooooOOOOOOOOXXXX...........ooooOOOO+++++++         ",
"      XXXooooOOOOoooo....           ....XXXXooo++++++++     ",
"      XXXooooOOOOoooo....           ....XXXXooo++++++++     ",
"      XXXooooOOOOoooo....           ....XXXXooo++++++++     ",
"      XXXooooOOOOoooo....           ....XXXXooo++++++++     ",
"      XXXOOOOXXXX                           XXXOOOO++++     ",
"      XXXOOOOXXXX                           XXXOOOO++++     ",
"      XXXOOOOXXXX                           XXXOOOO++++     ",
"  XXXXoooOOOOoooo                           ...ooooOOOO++++ ",
"  XXXXoooOOOOoooo                           ...ooooOOOO++++ ",
"  XXXXoooOOOOoooo                           ...ooooOOOO++++ ",
"  XXXXoooOOOOoooo                           ...ooooOOOO++++ ",
"  XXXXOOOOOOO                                  XXXXOOOO++++ ",
"  XXXXOOOOOOO                                  XXXXOOOO++++ ",
"  XXXXOOOOOOO                                  XXXXOOOO++++ ",
"  XXXXOOOOOOO                                  XXXXOOOO++++ ",
"  XXXXOOO++++                                  XXXXOOOO++++ ",
"  XXXXOOO++++                                  XXXXOOOO++++ ",
"  XXXXOOO++++                                  XXXXOOOO++++ ",
"  XXXXOOO++++                                  XXXXOOOO++++ ",
"  XXXXOOO++++                                  ....OOOO++++ ",
"  XXXXOOO++++                                  ....OOOO++++ ",
"  XXXXOOO++++                                  ....OOOO++++ ",
"  ....OOO++++                                  ....OOOOOOOO ",
"  ....OOO++++                                  ....OOOOOOOO ",
"  ....OOO++++                                  ....OOOOOOOO ",
"  ....OOO++++                                  ....OOOOOOOO ",
"  ....ooo++++OOOO                           ...ooooOOOOoooo ",
"  ....ooo++++OOOO                           ...ooooOOOOoooo ",
"  ....ooo++++OOOO                           ...ooooOOOOoooo ",
"  ....ooo++++OOOO                           ...ooooOOOOoooo ",
"      ...OOOO++++                           oooOOOOOOOO     ",
"      ...OOOO++++                           oooOOOOOOOO     ",
"      ...OOOO++++                           oooOOOOOOOO     ",
"      ...OOOO++++                           oooOOOOOOOO     ",
"      ...ooooOOOO++++OOOO           ....oooooooOOOOoooo     ",
"      ...ooooOOOO++++OOOO           ....oooooooOOOOoooo     ",
"      ...ooooOOOO++++OOOO           ....oooooooOOOOoooo     ",
"      ...ooooOOOO++++OOOO           ....oooooooOOOOoooo     ",
"         ....ooooOOOO+++++++++++OOOOOOOOOOOOooooooo         ",
"         ....ooooOOOO+++++++++++OOOOOOOOOOOOooooooo         ",
"         ....ooooOOOO+++++++++++OOOOOOOOOOOOooooooo         ",
"             ........ooooOOOOOOOOOOOoooo.......             ",
"             ........ooooOOOOOOOOOOOoooo.......             ",
"             ........ooooOOOOOOOOOOOoooo.......             ",
"             ........ooooOOOOOOOOOOOoooo.......             ",
"                     ...................                    ",
"                     ...................                    ",
"                     ...................                    ",
"                     ...................                    "
};
