/* XPM */
static char *_53e1e85636b4fdeea10d73ace0cf63as42LUAAx5dnG9m5E[] = {
/* columns rows colors chars-per-pixel */
"50 50 6 1 ",
"  c None",
". c #826F03",
"X c #AD820A",
"o c #D9A518",
"O c #F7CA00",
"+ c white",
/* pixels */
"              oooOOOO++++++++++++                 ",
"              oooOOOO++++++++++++                 ",
"           oooOOOOOOOOOOOOOOOOOOO++++++           ",
"           oooOOOOOOOOOOOOOOOOOOO++++++           ",
"           oooOOOOOOOOOOOOOOOOOOO++++++           ",
"           oooOOOOOOOOOOOOOOOOOOO++++++           ",
"       ooooOOOOOOXXXX.........oooOOOO+++++        ",
"       ooooOOOOOOXXXX.........oooOOOO+++++        ",
"       ooooOOOOOOXXXX.........oooOOOO+++++        ",
"     XXooooOOOooo....         ...XXXXoo+++++++    ",
"     XXooooOOOooo....         ...XXXXoo+++++++    ",
"     XXooooOOOooo....         ...XXXXoo+++++++    ",
"     XXOOOOXXX                       XXOOO++++    ",
"     XXOOOOXXX                       XXOOO++++    ",
"     XXOOOOXXX                       XXOOO++++    ",
"  XXXooOOOOooo                       ..oooOOOO+++ ",
"  XXXooOOOOooo                       ..oooOOOO+++ ",
"  XXXooOOOOooo                       ..oooOOOO+++ ",
"  XXXOOOOOO                            XXXOOOO+++ ",
"  XXXOOOOOO                            XXXOOOO+++ ",
"  XXXOOOOOO                            XXXOOOO+++ ",
"  XXXOOOOOO                            XXXOOOO+++ ",
"  XXXOO++++                            XXXOOOO+++ ",
"  XXXOO++++                            XXXOOOO+++ ",
"  XXXOO++++                            XXXOOOO+++ ",
"  XXXOO++++                            ...OOOO+++ ",
"  XXXOO++++                            ...OOOO+++ ",
"  ...OO++++                            ...OOOOOOO ",
"  ...OO++++                            ...OOOOOOO ",
"  ...OO++++                            ...OOOOOOO ",
"  ...OO++++                            ...OOOOOOO ",
"  ...oo++++OOO                       ..oooOOOOooo ",
"  ...oo++++OOO                       ..oooOOOOooo ",
"  ...oo++++OOO                       ..oooOOOOooo ",
"     ..OOOO+++                       ooOOOOOOO    ",
"     ..OOOO+++                       ooOOOOOOO    ",
"     ..OOOO+++                       ooOOOOOOO    ",
"     ..ooooOOO+++OOOO         ...ooooooOOOoooo    ",
"     ..ooooOOO+++OOOO         ...ooooooOOOoooo    ",
"     ..ooooOOO+++OOOO         ...ooooooOOOoooo    ",
"     ..ooooOOO+++OOOO         ...ooooooOOOoooo    ",
"       ....oooOOO++++++++++OOOOOOOOOOooooo        ",
"       ....oooOOO++++++++++OOOOOOOOOOooooo        ",
"           ......ooooOOOOOOOOOooo......           ",
"           ......ooooOOOOOOOOOooo......           ",
"           ......ooooOOOOOOOOOooo......           ",
"           ......ooooOOOOOOOOOooo......           ",
"                 ................                 ",
"                 ................                 ",
"                 ................                 "
};
