/* XPM */
static char *_447c4740d2443b5dde7f8233f8b8c95ZCt5OHCVreZ7fKCB[] = {
/* columns rows colors chars-per-pixel */
"35 35 15 1 ",
"  c None",
". c #101010",
"X c #000060",
"o c gray44",
"O c #A80000",
"+ c #F82020",
"@ c #985010",
"# c #009800",
"$ c #F8D800",
"% c #F8A850",
"& c #002098",
"* c #0040E8",
"= c gray69",
"- c #F8F898",
"; c #F8F8F8",
/* pixels */
"                 &&&&&&&           ",
"           X&  &&******&&&         ",
"           X*X&**********&XX       ",
"       X&  X-*X*****&&X...         ",
"       X*&&X--****&&X..            ",
"       &**X&**&********&X          ",
"        X&***&*&********&X         ",
"        X***&;&**********&X        ",
"        X***;;;******&&&&&X        ",
"        X**&;;;***&XX..X&&&X       ",
"        X*&.#;;******&X .X&X       ",
"         X&;#;;&******&X  .X       ",
"         XX;;%%-%**&&&&&   .       ",
"        ..%@@--@%&XXX&&&X  .       ",
"          @%---%&.....X&X          ",
"            @@...XX   .XX          ",
"               @%-.X   .X          ",
"              @--%-.X   .          ",
"              .--*%-@X  .          ",
"              .%**.%-.             ",
"               .*&.@-.             ",
"              oX&*.--.             ",
"             oX&..;o.              ",
"            o=X.=;=;.              ",
"            .=.;;;;o.              ",
"            .o.=;;;=..             ",
"             ...o;;o.=...          ",
"                ....;=++=.         ",
"                .=.;=o++;.         ",
"               .===..+$$;.         ",
"             ..OO==O=$O;.          ",
"            .OOOOOO++$O=.          ",
"            .===O+++++;.           ",
"            ....o=;;;;.            ",
"                ......             "
};
