/* XPM */
static char *_08c7578d26c450b8bf0edae211cea3b1wQ6a7Mv8dIDr7ty[] = {
/* columns rows colors chars-per-pixel */
"70 70 15 1 ",
"  c None",
". c #101010",
"X c #000060",
"o c gray44",
"O c #A80000",
"+ c #F82020",
"@ c #985010",
"# c #009800",
"$ c #F8D800",
"% c #F8A850",
"& c #002098",
"* c #0040E8",
"= c gray69",
"- c #F8F898",
"; c #F8F8F8",
/* pixels */
"                                  &&&&&&&&&&&&&&                      ",
"                                  &&&&&&&&&&&&&&                      ",
"                      XX&&    &&&&************&&&&&&                  ",
"                      XX&&    &&&&************&&&&&&                  ",
"                      XX**XX&&********************&&XXXX              ",
"                      XX**XX&&********************&&XXXX              ",
"              XX&&    XX--**XX**********&&&&XX......                  ",
"              XX&&    XX--**XX**********&&&&XX......                  ",
"              XX**&&&&XX----********&&&&XX....                        ",
"              XX**&&&&XX----********&&&&XX....                        ",
"              &&****XX&&****&&****************&&XX                    ",
"              &&****XX&&****&&****************&&XX                    ",
"                XX&&******&&**&&****************&&XX                  ",
"                XX&&******&&**&&****************&&XX                  ",
"                XX******&&;;&&********************&&XX                ",
"                XX******&&;;&&********************&&XX                ",
"                XX******;;;;;;************&&&&&&&&&&XX                ",
"                XX******;;;;;;************&&&&&&&&&&XX                ",
"                XX****&&;;;;;;******&&XXXX....XX&&&&&&XX              ",
"                XX****&&;;;;;;******&&XXXX....XX&&&&&&XX              ",
"                XX**&&..##;;;;************&&XX  ..XX&&XX              ",
"                XX**&&..##;;;;************&&XX  ..XX&&XX              ",
"                  XX&&;;##;;;;&&************&&XX    ..XX              ",
"                  XX&&;;##;;;;&&************&&XX    ..XX              ",
"                  XXXX;;;;%%%%--%%****&&&&&&&&&&      ..              ",
"                  XXXX;;;;%%%%--%%****&&&&&&&&&&      ..              ",
"                ....%%@@@@----@@%%&&XXXXXX&&&&&&XX    ..              ",
"                ....%%@@@@----@@%%&&XXXXXX&&&&&&XX    ..              ",
"                    @@%%------%%&&..........XX&&XX                    ",
"                    @@%%------%%&&..........XX&&XX                    ",
"                        @@@@......XXXX      ..XXXX                    ",
"                        @@@@......XXXX      ..XXXX                    ",
"                              @@%%--..XX      ..XX                    ",
"                              @@%%--..XX      ..XX                    ",
"                            @@----%%--..XX      ..                    ",
"                            @@----%%--..XX      ..                    ",
"                            ..----**%%--@@XX    ..                    ",
"                            ..----**%%--@@XX    ..                    ",
"                            ..%%****..%%--..                          ",
"                            ..%%****..%%--..                          ",
"                              ..**&&..@@--..                          ",
"                              ..**&&..@@--..                          ",
"                            ooXX&&**..----..                          ",
"                            ooXX&&**..----..                          ",
"                          ooXX&&....;;oo..                            ",
"                          ooXX&&....;;oo..                            ",
"                        oo==XX..==;;==;;..                            ",
"                        oo==XX..==;;==;;..                            ",
"                        ..==..;;;;;;;;oo..                            ",
"                        ..==..;;;;;;;;oo..                            ",
"                        ..oo..==;;;;;;==....                          ",
"                        ..oo..==;;;;;;==....                          ",
"                          ......oo;;;;oo..==......                    ",
"                          ......oo;;;;oo..==......                    ",
"                                ........;;==++++==..                  ",
"                                ........;;==++++==..                  ",
"                                ..==..;;==oo++++;;..                  ",
"                                ..==..;;==oo++++;;..                  ",
"                              ..======....++$$$$;;..                  ",
"                              ..======....++$$$$;;..                  ",
"                          ....OOOO====OO==$$OO;;..                    ",
"                          ....OOOO====OO==$$OO;;..                    ",
"                        ..OOOOOOOOOOOO++++$$OO==..                    ",
"                        ..OOOOOOOOOOOO++++$$OO==..                    ",
"                        ..======OO++++++++++;;..                      ",
"                        ..======OO++++++++++;;..                      ",
"                        ........oo==;;;;;;;;..                        ",
"                        ........oo==;;;;;;;;..                        ",
"                                ............                          ",
"                                ............                          "
};
