/* XPM */
static char *_8fb510549004015f93ede3c88be1bb5oekvonNraQUGeYJy[] = {
/* columns rows colors chars-per-pixel */
"120 120 46 1 ",
"  c #021002",
". c #031002",
"X c #031102",
"o c #021003",
"O c #031003",
"+ c #021103",
"@ c #031103",
"# c #022702",
"$ c #032702",
"% c #022703",
"& c #032703",
"* c #032803",
"= c #1C3F33",
"- c #035102",
"; c #025103",
": c #035103",
"> c #035104",
", c #045104",
"< c #055104",
"1 c #045105",
"2 c #055105",
"3 c #045204",
"4 c #055204",
"5 c #045205",
"6 c #055205",
"7 c #1C6902",
"8 c #1C6903",
"9 c #276F03",
"0 c #276F04",
"q c #286F03",
"w c #286F04",
"e c #336333",
"r c #3F8D03",
"t c #3F8D04",
"y c #3F8D05",
"u c #408D04",
"i c #408D05",
"p c #699803",
"a c #699903",
"s c #699904",
"d c #75AB28",
"f c #9FB603",
"g c #9FB604",
"h c #9FB704",
"j c #9FB605",
"k c #9FB705",
/* pixels */
",,,,,,,,,,,,,,,,,,,,,,,,,,,,,,,,,,,,,,,,,,,,,,,,,,,,,,,gggggg,,,,,,,,,,,,,,,,,,,,,,,,,,,,,,,,,,,,,,,,,,,,,,,,,,,,,,,,,,,",
",,,,,,,,,,,,,,,,,,,,,,,,,,,,,,,,,,,,,,,,,,,,,,,,,,,,,,,gggggg,,,,,,,,,,,,,,,,,,,,,,,,,,,,,,,,,,,,,,,,,,,,,,,,,,,,,,,,,,,",
",,,,,,,,,,,,,,,,,,,,,,,,,,,,,,,,,,,,,,,,,,,,,,,,,,,,,,,gggggg,,,,,,,,,,,,,,,,,,,,,,,,,,,,,,,,,,,,,,,,,,,,,,,,,,,,,,,,,,,",
",,,,,,,,,,,,,,,,,,,,,,,,,,,,,,,,,,,,,,,,,,,,,,,,,,,,,,,gggggg,,,,,,,,,,,,,,,,,,,,,,,,,,,,,,,,,,,,,,,,,,,,,,,,,,,,,,,,,,,",
",,,,,,,,,,,,,,,,,,,,,,,,,,,,,,,,,,,,,,,,,,,,,,,,,,,,,,,gggggg,,,,,,,,,,,,,,,,,,,,,,,,,,,,,,,,,,,,,,,,,,,,,,,,,,,,,,,,,,,",
"ttuuutttttuututtuututtttuuutuutuuututttuuttuuutuutgggggggggggggggtututututtuuuutttttttttttuuututtttuttuttututtttuuuuutut",
"tuuuutttttuttutuuutuututututtutututttuttutuuutuutuggggggggggggggguuttuuttutttutututtututtuuuttututuutuuuttuuutuuuttuuutt",
"uttuuuutuuuuututttuuuttttuuttuutttuuutuuuuuuttuuutgggggggggggggggttttuutututtuututuuutttttttuututtututuuttttutuutuututut",
"tttuuutututtuttuutuuuuttttttttuutuuututtttutuuuuutggggggggggggggguuutuuttutuuuttttuutttttuuututtutttutuuuuutuutttuuuutuu",
"ttututututtuuuuuutttuuuuutuutuuttttuuttuutttuttuutgggggggggggggggtuttuuttttutuutttuttutuuuuttuuutututuuuuttuuuutttttttut",
"dddddddddddddddddddddddddddddddddddddddddddddgggggggggggggggggggggggggdddddddddddddddddddddddddgggggdddddddddddddddddddd",
"dddddddddddddddddddddddddddddddddddddddddddddgggggggggggggggggggggggggdddddddddddddddddddddddddgggggdddddddddddddddddddd",
"dddddddddddddddddddddddddddddddddddddddddddddgggggggggggggggggggggggggdddddddddddddddddddddddddgggggdddddddddddddddddddd",
"dddddddddddddddddddddddddddddddddddddddddddddgggggggggggggggggggggggggdddddddddddddddddddddddddgggggdddddddddddddddddddd",
"dddddddddddddddddddddddddddddddddddddddddddddgggggggggggggggggggggggggdddddddddddddddddddddddddgggggdddddddddddddddddddd",
"ssssssssssssssssssssssssssssssssssssssssgggggggggggggggsssssgggggggggggggggsssssssssssssssgggggggggggggggsssssssssssssss",
"ssssssssssssssssssssssssssssssssssssssssgggggggggggggggsssssgggggggggggggggsssssssssssssssgggggggggggggggsssssssssssssss",
"ssssssssssssssssssssssssssssssssssssssssgggggggggggggggsssssgggggggggggggggsssssssssssssssgggggggggggggggsssssssssssssss",
"ssssssssssssssssssssssssssssssssssssssssgggggggggggggggsssssgggggggggggggggsssssssssssssssgggggggggggggggsssssssssssssss",
"ssssssssssssssssssssssssssssssssssssssssgggggggggggggggsssssgggggggggggggggsssssssssssssssgggggggggggggggsssssssssssssss",
"ssssstttttttttttttttttttttttttsssssgggggggggggggggssssstttttsssssgggggggggggggggsssssgggggggggggggggggggggggggsssssttttt",
"ssssstttttttttttttttttttttttttsssssgggggggggggggggssssstttttsssssgggggggggggggggsssssgggggggggggggggggggggggggsssssttttt",
"ssssstttttttttttttttttttttttttsssssgggggggggggggggssssstttttsssssgggggggggggggggsssssgggggggggggggggggggggggggsssssttttt",
"ssssstttttttttttttttttttttttttsssssgggggggggggggggssssstttttsssssgggggggggggggggsssssgggggggggggggggggggggggggsssssttttt",
"ssssstttttttttttttttttttttttttsssssgggggggggggggggssssstttttsssssgggggggggggggggsssssgggggggggggggggggggggggggsssssttttt",
"gggggssssstttttttttttttttsssssgggggggggggggggssssstttttwwwwwtttttsssssgggggggggggggggggggggggggsssssgggggggggggggggsssss",
"gggggssssstttttttttttttttsssssgggggggggggggggssssstttttwwwwwtttttsssssgggggggggggggggggggggggggsssssgggggggggggggggsssss",
"gggggssssstttttttttttttttsssssgggggggggggggggssssstttttwwwwwtttttsssssgggggggggggggggggggggggggsssssgggggggggggggggsssss",
"gggggssssstttttttttttttttsssssgggggggggggggggssssstttttwwwwwtttttsssssgggggggggggggggggggggggggsssssgggggggggggggggsssss",
"gggggssssstttttttttttttttsssssgggggggggggggggssssstttttwwwwwtttttsssssgggggggggggggggggggggggggsssssgggggggggggggggsssss",
"ggggggggggssssstttttsssssgggggggggggggggssssstttttwwwwweeeeewwwwwtttttsssssgggggggggggggggssssstttttsssssggggggggggggggg",
"ggggggggggssssstttttsssssgggggggggggggggssssstttttwwwwweeeeewwwwwtttttsssssgggggggggggggggssssstttttsssssggggggggggggggg",
"ggggggggggssssstttttsssssgggggggggggggggssssstttttwwwwweeeeewwwwwtttttsssssgggggggggggggggssssstttttsssssggggggggggggggg",
"ggggggggggssssstttttsssssgggggggggggggggssssstttttwwwwweeeeewwwwwtttttsssssgggggggggggggggssssstttttsssssggggggggggggggg",
"ggggggggggssssstttttsssssgggggggggggggggssssstttttwwwwweeeeewwwwwtttttsssssgggggggggggggggssssstttttsssssggggggggggggggg",
"gggggggggggggggsssssgggggggggggggggssssstttttwwwwweeeeeeeeeeeeeeewwwwwtttttsssssgggggssssstttttwwwwwtttttsssssgggggggggg",
"gggggggggggggggsssssgggggggggggggggssssstttttwwwwweeeeeeeeeeeeeeewwwwwtttttsssssgggggssssstttttwwwwwtttttsssssgggggggggg",
"gggggggggggggggsssssgggggggggggggggsassstttttwwwwweeeeeeeeeeeeeeewwwwwtttttsssssgggggssssstttttwwwwwtttttsssssgggggggggg",
"gggggggggggfgggsssssgggggggggggggggssssstttttwwwwweeeeeeeeeeeeeeewwqwwtttttsssssgggggssssstttttwwwwwtttttsssssgggggggggg",
"gggfgggggggggggsssssggfgggggggfggggssssstttttwwwwweeeeeeeeeeeeeeewwwwwttttrsssasfggggsssssttrrtwwwqwrrtttsssssgggggggggg",
"assssgggfgggggfggggggggggfggfgsssssrtrttqqwwweeeeeeeeeeeeeeeeeeeeeeeeewqwwwtttttsssssttrttwwwqweeeeewqwwqtttttsssssggfgg",
"saassgfggggggfggfgggggfggggfggsssssttrttwwwwweeeeeeeeeeeeeeeeeeeeeeeeeqwwwwtttttsassatttttwwwwqeeeeewwwwwtrtttssssaggggg",
"ssssaggfgffggfgfgggffggggfggggsaasstttttwqwwqeeeeeeeeeeeeeeeeeeeeeeeeeqwqqqrttttssssstttttwwwwweeeeewwwwwrtttrsssssggggg",
"sssssgggggggggggfgggggffggfgggsssssttrtrqqqwweeeeeeeeeeeeeeeeeeeeeeeeewwwwwttrttssssstttttwwwwweeeeeqwwwqtttttsssssggggf",
"sssasgfgfgggfgggggfgggfgggggggssssstrttrwwqwweeeeeeeeeeeeeeeeeeeeeeeeeqwwwwrttttsassstttrtwwwwweeeeewqqwwtttrtsasssfggfg",
"tttttsasasggffgggfgggggggasssarrtrrwwwwweeeeeeeeeeeeeeewwqwweeeeeeeeeeeeeeewwqwwtttttwwqqweeeeeeeeeeeeeeewwwwqtttrrssaaa",
"ttrrrsssssgfggggfggggfgggsassstttttwqqqweeeeeeeeeeeeeeewqwwqeeeeeeeeeeeeeeeqqwwwtttttwqwwweeeeeeeeeeeeeeewwwwwttrttsasss",
"ttrrrssassgggfggggggggfggassastrtrtwqwqqeeeeeeeeeeeeeeewwwwweeeeeeeeeeeeeeewwwqwtttrtwqwqqeeeeeeeeeeeeeeewqqwwtrrtraasss",
"trtttassssgggfggggffggffgaassstrtrrqqqwweeeeeeeeeeeeeeeqqwwweeeeeeeeeeeeeeewwwqwttrttwwwwweeeeeeeeeeeeeeeqqwqwtrttrsasss",
"tttttsssssggggggggggfggfgasassttrrtqwwwweeeeeeeeeeeeeeewwwwweeeeeeeeeeeeeeewwwwqtrrtrwwwwweeeeeeeeeeeeeeewwwqwtrtttsasas",
"qwwwwtrtrrssassgfgggaassstttrrwqqwqeeeeeeeeeeeeeeewwqqwttrrtqwqwqeeeeeeeeeeeeeeeqwqqqeeeeeeeeeeeeeeeeeeeeeeeeeqqwqqtrttt",
"wwqqqtttrrsssasfgfggasssstttttwqwwqeeeeeeeeeeeeeeewwwwqtrtttwwqwqeeeeeeeeeeeeeeewqwwqeeeeeeeeeeeeeeeeeeeeeeeeeqqqqwrrtrt",
"wqwqqttrtrassasggggfassastttttwwwwweeeeeeeeeeeeeeewwqqwttrttwqqqweeeeeeeeeeeeeeewwqwweeeeeeeeeeeeeeeeeeeeeeeeeqqqwwttrrr",
"qqqwwtrttrasasagggffsasaarrrtrqwqwqeeeeeeeeeeeeeeewqwwwtrrttqwwwqeeeeeeeeeeeeeeewwwqqeeeeeeeeeeeeeeeeeeeeeeeeeqwqqwtttrt",
"wwqqwtttttsasaafggggasaasttrttqqwwqeeeeeeeeeeeeeeeqwwwwtttrrwwwwweeeeeeeeeeeeeeewqqwqeeeeeeeeeeeeeeeeeeeeeeeeeqwwwwttttr",
"eeeeewwqqwttrrtsaassrtttrqqqwqeeeeeeeeeeeeeeewwwwqrrrrraaassrrrttqqwwweeeeeeeeeeeeeeeeeeeeeeeeewqqqqeeeeeeeeeeeeeeeqwqwq",
"eeeeewwqqwtrrtrsasaarrrtrwqqqqeeeeeeeeeeeeeeeqqwqqtttttassasrtrtrwqwqweeeeeeeeeeeeeeeeeeeeeeeeewqwqqeeeeeeeeeeeeeeeqwqwq",
"eeeeewqqqwtrtttasaaatrrrrwqwqweeeeeeeeeeeeeeewwwqqrrtrrsssssrrttrwqwqqeeeeeeeeeeeeeeeeeeeeeeeeeqwwqweeeeeeeeeeeeeeeqqqww",
"eeeeeqqwqqtttttssssattttrwqwwqeeeeeeeeeeeeeeeqwwqqttttrasasartrttqwqwweeeeeeeeeeeeeeeeeeeeeeeeewqqqqeeeeeeeeeeeeeeeqwqqq",
"eeeeewqqqqrrtrrasasattrrr9qqqweeeeeeeeeeeeeeewqqq0trtrrassssttttrqqqqweeeeeeeeeeeeeeeeeeeeeeeeeqqqqqeeeeeeeeeeeeeeeqqwqw",
"eeeeeeeeeewqqwqrtrttwwww0eeeeeeeeeeeeeeeqqwq9rrrtrsaassssaassssasrtrrrwqqqqeeeeeeeeeeeeeeew9wwqrtrrrqwqqqeeeeeeeeeeeeeee",
"eeeeeeeeeeqwwwqrtttrwqwqweeeeeeeeeeeeeeewqqwwrrrtraaaasasasasaasattrrrqqqqweeeeeeeeeeeeeeeq9qqqrrrtrqq9qqeeeeeeeeeeeeeee",
"eeeeeeeeeeqwqwqtrrrrwwwqqeeeeeeeeeeeeeeewwqwwttrrtsaassaaasaaaasarrrrtqqqqqeeeeeeeeeeeeeeeqqqq0rttrrqwq9weeeeeeeeeeeeeee",
"eeeeeeeeeew9qq9rrrrrq0qwweeeeeeeeeeeeeeeq0qwqrrrrrsaasaaaassaaaaatrtrtq9wqqeeeeeeeeeeeeeeeqqqqqrrtrrq9qwqeeeeeeeeeeeeeee",
"eeeeeeeeee0qqqqtrrrrqqqq9eeeeeeeeeeeeeeeqqwwqrrtttassssaaaasaaassrrrrtqqwqweeeeeeeeeeeeeeewq9qqrttrrqqqw0eeeeeeeeeeeeeee",
"eeeeeeeeeeeeeeeqq0qqeeeeeeeeeeeeeeeqq9qqrtrrtaassaaaaaa9qqqqaaasaaassarrrtrqqw99eeeeeqq9wwrtrrraaaaarrrrr9q09qeeeeeeeeee",
"eeeeeeeeeeeeeee9qqqqeeeeeeeeeeeeeeeqwq99rrrrtsassaaaaaa99qqwasasasasasrrrrr9qqwqeeeeew0qwqrtrtraaasatrrrrqqqqqeeeeeeeeee",
"eeeeeeeeeeeeeeeqqqqqeeeeeeeeeeeeeeeqqq9qrrrrraaaaaaasaa9w999aaasaasaaarrtrrqq9qqeeeeeqqqqqrrrtraaaaarrrrrqqq09eeeeeeeeee",
"eeeeeeeeeeeeeeeq9qqqeeeeeeeeeeeeeeeqwqqqrtrrraaaaaaaaaaqq99qaaaaaasaaarrrrrqqqq9eeeee999wqrtrrraassarrrrrqqwwqeeeeeeeeee",
"eeeeeeeeeeeeeeeqq999eeeeeeeeeeeeeeeqq90qrtrrrsaaaaasaasqqwqqaasaasaaaarrrrrq9w9weeeee99qq9trrrraaaaarrrrt9qqqqeeeeeeeeee",
"q009qeeeeeeeeeeeeeeeeeeeeeeeeeqqqq9rtrrrasaaaaasaaqqq9q>::::qqq9qaasaaaaasarrrrrqqqwqrrrrraaaaaaaaaasaaaarrtrrwqq9qeeeee",
"qq999eeeeeeeeeeeeeeeeeeeeeeeee99qqqrrrrraaaaaaaaaaqqqqq>::::qqqq9aaaaaasassrrrrrqqq9qrrrrraaaaaaaaaaaaaaarrrrr999w9eeeee",
"9qwqqeeeeeeeeeeeeeeeeeeeeeeeeeq9q99rrrrraaaaaaaaaaq9wqq:::::9q99qaaaassasaarrtrrqq9q9rrrrraaaaaaaaaaaaaaarrrrrqqqq9eeeee",
"q9qq9eeeeeeeeeeeeeeeeeeeeeeeeeq99qqrrrrraaaaaaaaaaqq9qq:::::q9qqqaaaaaaaaaarrrrr0qqqqrrrrraaaaaaaaaaaaasarrrrrq9q9qeeeee",
"9999qeeeeeeeeeeeeeeeeeeeeeeeee9q999rrrrraaaaasaaaa999qq:::::qq9q9aaaaaaaaaarrrrr9q9qqrrrrraaaaaaaaaaaaaaarrrrrq999qeeeee",
"rrrrr9qq9qeeeeeeeeeeeeeee9q9qqrrrrraaaaaaaaaaqqqq9:::::&**&*:::::9q999aaaaaaaaaarrrrraaaaaaaaaaq99qqaaaaaaaaaarrrrrqqqq9",
"rrrrrqq999eeeeeeeeeeeeeeeq99qqrrrrraaaaaaaaaaq99q9:::::&****:::::q999qaaaaaaaaaarrrrraaaaaaaaaa9q99qaaaaaaaaaarrrrr9qqq9",
"rrrrrqq9qqeeeeeeeeeeeeeee9qq99rrrrraaaaaaaaaaqqq9q:::::&*&&*:::::9q9qqaaaaaaaaaarrrrraaaaaaaaaa99qq9aaaaaaaaaarrrrrqq9q9",
"rrrrr9q999eeeeeeeeeeeeeeeqqqq9rrrrraaaaaaaaaaqqq99:::::****&:::::99999aaaaaaaaaarrrrraaaaaaaaaa9qqq9aaaaaaaaaarrrrr999q9",
"rrrrrqq999eeeeeeeeeeeeeee99999rrrrraaaaaaaaaaq9qq9:::::**&&*:::::q999qaaaaaaaaaarrrrraaaaaaaaaaq9qq9aaaaaaaaaarrrrrqq99q",
"aaaaarrrrrqqq99eeeee9q9q9rrrrraaaaaaaaaa9q9qq:::::*****=====*&&*&:::::999qqaaaaaaaaaaaaaaaqqqqq:::::99q99aaaaaaaaaarrrrr",
"aaaaarrrrr9q999eeeee9q9q9rrrrraaaaaaaaaa99q99:::::&&*&&=====*&&*&:::::q99q9aaaaaaaaaaaaaaaqq999:::::q9999aaaaaaaaaarrrrr",
"aaaaarrrrr9q9q9eeeee999qqrrrrraaaaaaaaaa9q99q:::::*&&*&=====**&&&:::::99qq9aaaaaaaaaaaaaaaq999q:::::99q99aaaaaaaaaarrrrr",
"aaaaarrrrr999q9eeeee9q9q9rrrrraaaaaaaaaa9999q:::::&&*&*=====***&&:::::q999qaaaaaaaaaaaaaaa99999:::::qq99qaaaaaaaaaarrrrr",
"aaaaarrrrr9qq9qeeeee9q9qqrrrrraaaaaaaaaa999qq:::::&&***=====&&&&&:::::999qqaaaaaaaaaaaaaaa9qqqq:::::9q999aaaaaaaaaarrrrr",
"aaaaaaaaaarrrrr9qqqqrrrrraaaaaaaaaa99999:::::&&*&&=====88888=====&&&&&:::::9q999aaaaaq999q:::::&&&*&:::::999q9aaaaaaaaaa",
"aaaaaaaaaarrrrr9999qrrrrraaaaaaaaaa999q9:::::&&&*&=====88888=====*&&*&:::::9qq99aaaaa99999:::::&*&&*:::::qq999aaaaaaaaaa",
"aaaaaaaaaarrrrr99q99rrrrraaaaaaaaaa99999:::::&&&&&=====88888=====&*&&&:::::q9qqqaaaaa999q9:::::&&&&&:::::99999aaaaaaaaaa",
"aaaaaaaaaarrrrr99999rrrrraaaaaaaaaa99q99:::::&&*&&=====88888=====&**&&:::::99q99aaaaa999qq:::::&&**&:::::9q999aaaaaaaaaa",
"aaaaaaaaaarrrrr9q999rrrrraaaaaaaaaaqq999:::::&&&&&=====88888=====&&&&*:::::99999aaaaa9q99q:::::&&&&&:::::q999qaaaaaaaaaa",
"99999aaaaaaaaaarrrrraaaaaaaaaa99999:::::&&&&&=====888888888888888=====&&&**:::::99999:::::&&&&&=====&&&*&:::::9q999aaaaa",
"99999aaaaaaaaaarrrrraaaaaaaaaa99999:::::&&&&&=====888888888888888=====&&&&&:::::99999:::::**&&&=====&&&&&:::::q9999aaaaa",
"99999aaaaaaaaaarrrrraaaaaaaaaa99999:::::&&&&&=====888888888888888=====&&&&&:::::9999q:::::*&&&&=====*&&&&:::::99q99aaaaa",
"99999aaaaaaaaaarrrrraaaaaaaaaa99999:::::&&&&&=====888888888888888=====&&*&&:::::99999:::::&*&&&=====&&&&&:::::99999aaaaa",
"99999aaaaaaaaaarrrrraaaaaaaaaa99999:::::&&&&&=====888888888888888=====&&&&&:::::9999q:::::*&&&&=====&&&&&:::::99999aaaaa",
":::::9q999aaaaaaaaaaaaaaa99999:::::&&&&&=====8888888888=====8888888888=====&&&&&:::::&&&&&=====&&&&&=====&&&&&:::::99999",
":::::99999aaaaaaaaaaaaaaa99999:::::&&&&&=====8888888888=====8888888888=====&&&&&:::::&&&&&=====&&&&&=====&&&&&:::::99999",
":::::99999aaaaaaaaaaaaaaa99999:::::&&&&&=====8888888888=====8888888888=====&&&&&:::::&&&&&=====&&&&&=====&&&&&:::::99999",
":::::99999aaaaaaaaaaaaaaa99999:::::&&&&&=====8888888888=====8888888888=====&&&&&:::::&&&&&=====&&&&&=====&&&&&:::::99999",
":::::99999aaaaaaaaaaaaaaa99999:::::&&&&&=====8888888888=====8888888888=====&&&&&:::::&&&&&=====&&&&&=====&&&&&:::::99999",
"&&&&&:::::99999aaaaa99999:::::&&&&&=====8888888888=====&&&&&=====8888888888=====&&&&&=====&&&&&=====&&&&&:::::&&&&&:::::",
"&&&&&:::::99999aaaaa99999:::::&&&&&=====8888888888=====&&&&&=====8888888888=====&&&&&=====&&&&&=====&&&&&:::::&&&&&:::::",
"&&&&&:::::99999aaaaa99999:::::&&&&&=====8888888888=====&&&&&=====8888888888=====&&&&&=====&&&&&=====&&&&&:::::&&&&&:::::",
"&&&&&:::::99999aaaaa99999:::::&&&&&=====8888888888=====&&&&&=====8888888888=====&&&&&=====&&&&&=====&&&&&:::::&&&&&:::::",
"&&&&&:::::99999aaaaa99999:::::&&&&&=====8888888888=====&&&&&=====8888888888=====&&&&&=====&&&&&=====&&&&&:::::&&&&&:::::",
":::::&&&&&:::::99999:::::&&&&&=====8888888888=====&&&&&     &&&&&=====8888888888=====&&&&&=====88888=====&&&&&:::::&&&&&",
":::::&&&&&:::::99999:::::&&&&&=====8888888888=====&&&&&     &&&&&=====8888888888=====&&&&&=====88888=====&&&&&:::::&&&&&",
":::::&&&&&:::::99999:::::&&&&&=====8888888888=====&&&&&     &&&&&=====8888888888=====&&&&&=====88888=====&&&&&:::::&&&&&",
":::::&&&&&:::::99999:::::&&&&&=====8888888888=====&&&&&     &&&&&=====8888888888=====&&&&&=====88888=====&&&&&:::::&&&&&",
":::::&&&&&:::::99999:::::&&&&&=====8888888888=====&&&&&     &&&&&=====8888888888=====&&&&&=====88888=====&&&&&:::::&&&&&",
"&&&&&=====&&&&&:::::&&&&&=====8888888888=====&&&&&               &&&&&=====8888888888=====888888888888888=====&&&&&:::::",
"&&&&&=====&&&&&:::::&&&&&=====8888888888=====&&&&&               &&&&&=====8888888888=====888888888888888=====&&&&&:::::",
"&&&&&=====&&&&&:::::&&&&&=====8888888888=====&&&&&               &&&&&=====8888888888=====888888888888888=====&&&&&:::::",
"&&&&&=====&&&&&:::::&&&&&=====8888888888=====&&&&&               &&&&&=====8888888888=====888888888888888=====&&&&&:::::",
"&&&&&=====&&&&&:::::&&&&&=====8888888888=====&&&&&        O   O  &&&&&=====8888888888=====888888888888888=====&&&&&:::::",
"=====88888=====&&&&&=====8888888888=====&&&&&             O           &&&&&=====888888888888888=====8888888888=====&&&&&",
"=====88888=====&&&&&=====8888888888=====&&&&&                         &&&&&=====888888888888888=====8888888888=====&&&&&",
"=====88888=====&&&&&=====8888888888=====&&&&&                         &&&&&=====888888888888888=====8888888888=====&&&&&",
"=====88888=====&&&&&=====8888888888=====&&&&&              O          &&&&&=====888888888888888=====8888888888=====&&&&&",
"=====88888=====&&&&&=====8888888888=====&&&&&              O O        &&&&&=====888888888888888=====8888888888=====&&&&&"
};
