/* XPM */
static char *_2b5f428d9884c95f083a731e888b053YSq26F1PiCrheFen[] = {
/* columns rows colors chars-per-pixel */
"120 120 6 1 ",
"  c None",
". c #826F03",
"X c #AD820A",
"o c #D9A518",
"O c #F7CA00",
"+ c white",
/* pixels */
"                                                                                                                        ",
"                                                                                                                        ",
"                                                                                                                        ",
"                                                                                                                        ",
"                                                                                                                        ",
"                                                                                                                        ",
"                                                                                                                        ",
"                                                                                                                        ",
"                                                                                                                        ",
"                                                                                                                        ",
"                                                                                                                        ",
"                                                                                                                        ",
"                                                                                                                        ",
"                                                                                                                        ",
"                                                                                                                        ",
"                                                                                                                        ",
"                                                                                                                        ",
"                                                                                                                        ",
"                                                                                                                        ",
"                                                                                                                        ",
"                                                                                                                        ",
"                                                                                                                        ",
"                                                                                                                        ",
"                                                                                                                        ",
"                                                                                                                        ",
"                                                                                                                        ",
"                                                                                                                        ",
"                                                                                                                        ",
"                                                                                                                        ",
"                                                                                                                        ",
"                                               ooooOOOO+++++++++++++++                                                  ",
"                                               ooooOOOO+++++++++++++++                                                  ",
"                                               ooooOOOO+++++++++++++++                                                  ",
"                                           ooooOOOOOOOOOOOOOOOOOOOOOOO+++++++                                           ",
"                                           ooooOOOOOOOOOOOOOOOOOOOOOOO+++++++                                           ",
"                                           ooooOOOOOOOOOOOOOOOOOOOOOOO+++++++                                           ",
"                                           ooooOOOOOOOOOOOOOOOOOOOOOOO+++++++                                           ",
"                                       ooooOOOOOOOOXXXX...........ooooOOOO+++++++                                       ",
"                                       ooooOOOOOOOOXXXX...........ooooOOOO+++++++                                       ",
"                                       ooooOOOOOOOOXXXX...........ooooOOOO+++++++                                       ",
"                                       ooooOOOOOOOOXXXX...........ooooOOOO+++++++                                       ",
"                                    XXXooooOOOOoooo....           ....XXXXooo++++++++                                   ",
"                                    XXXooooOOOOoooo....           ....XXXXooo++++++++                                   ",
"                                    XXXooooOOOOoooo....           ....XXXXooo++++++++                                   ",
"                                    XXXooooOOOOoooo....           ....XXXXooo++++++++                                   ",
"                                    XXXOOOOXXXX                           XXXOOOO++++                                   ",
"                                    XXXOOOOXXXX                           XXXOOOO++++                                   ",
"                                    XXXOOOOXXXX                           XXXOOOO++++                                   ",
"                                XXXXoooOOOOoooo                           ...ooooOOOO++++                               ",
"                                XXXXoooOOOOoooo                           ...ooooOOOO++++                               ",
"                                XXXXoooOOOOoooo                           ...ooooOOOO++++                               ",
"                                XXXXoooOOOOoooo                           ...ooooOOOO++++                               ",
"                                XXXXOOOOOOO                                  XXXXOOOO++++                               ",
"                                XXXXOOOOOOO                                  XXXXOOOO++++                               ",
"                                XXXXOOOOOOO                                  XXXXOOOO++++                               ",
"                                XXXXOOOOOOO                                  XXXXOOOO++++                               ",
"                                XXXXOOO++++                                  XXXXOOOO++++                               ",
"                                XXXXOOO++++                                  XXXXOOOO++++                               ",
"                                XXXXOOO++++                                  XXXXOOOO++++                               ",
"                                XXXXOOO++++                                  XXXXOOOO++++                               ",
"                                XXXXOOO++++                                  ....OOOO++++                               ",
"                                XXXXOOO++++                                  ....OOOO++++                               ",
"                                XXXXOOO++++                                  ....OOOO++++                               ",
"                                ....OOO++++                                  ....OOOOOOOO                               ",
"                                ....OOO++++                                  ....OOOOOOOO                               ",
"                                ....OOO++++                                  ....OOOOOOOO                               ",
"                                ....OOO++++                                  ....OOOOOOOO                               ",
"                                ....ooo++++OOOO                           ...ooooOOOOoooo                               ",
"                                ....ooo++++OOOO                           ...ooooOOOOoooo                               ",
"                                ....ooo++++OOOO                           ...ooooOOOOoooo                               ",
"                                ....ooo++++OOOO                           ...ooooOOOOoooo                               ",
"                                    ...OOOO++++                           oooOOOOOOOO                                   ",
"                                    ...OOOO++++                           oooOOOOOOOO                                   ",
"                                    ...OOOO++++                           oooOOOOOOOO                                   ",
"                                    ...OOOO++++                           oooOOOOOOOO                                   ",
"                                    ...ooooOOOO++++OOOO           ....oooooooOOOOoooo                                   ",
"                                    ...ooooOOOO++++OOOO           ....oooooooOOOOoooo                                   ",
"                                    ...ooooOOOO++++OOOO           ....oooooooOOOOoooo                                   ",
"                                    ...ooooOOOO++++OOOO           ....oooooooOOOOoooo                                   ",
"                                       ....ooooOOOO+++++++++++OOOOOOOOOOOOooooooo                                       ",
"                                       ....ooooOOOO+++++++++++OOOOOOOOOOOOooooooo                                       ",
"                                       ....ooooOOOO+++++++++++OOOOOOOOOOOOooooooo                                       ",
"                                           ........ooooOOOOOOOOOOOoooo.......                                           ",
"                                           ........ooooOOOOOOOOOOOoooo.......                                           ",
"                                           ........ooooOOOOOOOOOOOoooo.......                                           ",
"                                           ........ooooOOOOOOOOOOOoooo.......                                           ",
"                                                   ...................                                                  ",
"                                                   ...................                                                  ",
"                                                   ...................                                                  ",
"                                                   ...................                                                  ",
"                                                                                                                        ",
"                                                                                                                        ",
"                                                                                                                        ",
"                                                                                                                        ",
"                                                                                                                        ",
"                                                                                                                        ",
"                                                                                                                        ",
"                                                                                                                        ",
"                                                                                                                        ",
"                                                                                                                        ",
"                                                                                                                        ",
"                                                                                                                        ",
"                                                                                                                        ",
"                                                                                                                        ",
"                                                                                                                        ",
"                                                                                                                        ",
"                                                                                                                        ",
"                                                                                                                        ",
"                                                                                                                        ",
"                                                                                                                        ",
"                                                                                                                        ",
"                                                                                                                        ",
"                                                                                                                        ",
"                                                                                                                        ",
"                                                                                                                        ",
"                                                                                                                        ",
"                                                                                                                        ",
"                                                                                                                        ",
"                                                                                                                        ",
"                                                                                                                        "
};
