/* XPM */
static char *_79339b85ba947c5c16177c54cf4acb0Bhm8PMk0bbl8ev1v[] = {
/* columns rows colors chars-per-pixel */
"120 120 15 1 ",
"  c None",
". c #101010",
"X c #000060",
"o c gray44",
"O c #A80000",
"+ c #F82020",
"@ c #985010",
"# c #009800",
"$ c #F8D800",
"% c #F8A850",
"& c #002098",
"* c #0040E8",
"= c gray69",
"- c #F8F898",
"; c #F8F8F8",
/* pixels */
"                                                                                                                        ",
"                                                                                                                        ",
"                                                                                                                        ",
"                                                                                                                        ",
"                                                                                                                        ",
"                                                                                                                        ",
"                                                                                                                        ",
"                                                                                                                        ",
"                                                           &&&&&&&&&&&&&&&&&&&&&                                        ",
"                                                           &&&&&&&&&&&&&&&&&&&&&                                        ",
"                                                           &&&&&&&&&&&&&&&&&&&&&                                        ",
"                                         XXX&&&      &&&&&&******************&&&&&&&&&                                  ",
"                                         XXX&&&      &&&&&&******************&&&&&&&&&                                  ",
"                                         XXX&&&      &&&&&&******************&&&&&&&&&                                  ",
"                                         XXX***XXX&&&******************************&&&XXXXXX                            ",
"                                         XXX***XXX&&&******************************&&&XXXXXX                            ",
"                                         XXX***XXX&&&******************************&&&XXXXXX                            ",
"                             XXX&&&      XXX---***XXX***************&&&&&&XXX.........                                  ",
"                             XXX&&&      XXX---***XXX***************&&&&&&XXX.........                                  ",
"                             XXX&&&      XXX---***XXX***************&&&&&&XXX.........                                  ",
"                             XXX***&&&&&&XXX------************&&&&&&XXX......                                           ",
"                             XXX***&&&&&&XXX------************&&&&&&XXX......                                           ",
"                             XXX***&&&&&&XXX------************&&&&&&XXX......                                           ",
"                             &&&******XXX&&&******&&&************************&&&XXX                                     ",
"                             &&&******XXX&&&******&&&************************&&&XXX                                     ",
"                             &&&******XXX&&&******&&&************************&&&XXX                                     ",
"                                XXX&&&*********&&&***&&&************************&&&XXX                                  ",
"                                XXX&&&*********&&&***&&&************************&&&XXX                                  ",
"                                XXX&&&*********&&&***&&&************************&&&XXX                                  ",
"                                XXX*********&&&;;;&&&******************************&&&XXX                               ",
"                                XXX*********&&&;;;&&&******************************&&&XXX                               ",
"                                XXX*********&&&;;;&&&******************************&&&XXX                               ",
"                                XXX*********;;;;;;;;;******************&&&&&&&&&&&&&&&XXX                               ",
"                                XXX*********;;;;;;;;;******************&&&&&&&&&&&&&&&XXX                               ",
"                                XXX*********;;;;;;;;;******************&&&&&&&&&&&&&&&XXX                               ",
"                                XXX******&&&;;;;;;;;;*********&&&XXXXXX......XXX&&&&&&&&&XXX                            ",
"                                XXX******&&&;;;;;;;;;*********&&&XXXXXX......XXX&&&&&&&&&XXX                            ",
"                                XXX******&&&;;;;;;;;;*********&&&XXXXXX......XXX&&&&&&&&&XXX                            ",
"                                XXX***&&&...###;;;;;;******************&&&XXX   ...XXX&&&XXX                            ",
"                                XXX***&&&...###;;;;;;******************&&&XXX   ...XXX&&&XXX                            ",
"                                XXX***&&&...###;;;;;;******************&&&XXX   ...XXX&&&XXX                            ",
"                                   XXX&&&;;;###;;;;;;&&&******************&&&XXX      ...XXX                            ",
"                                   XXX&&&;;;###;;;;;;&&&******************&&&XXX      ...XXX                            ",
"                                   XXX&&&;;;###;;;;;;&&&******************&&&XXX      ...XXX                            ",
"                                   XXXXXX;;;;;;%%%%%%---%%%******&&&&&&&&&&&&&&&         ...                            ",
"                                   XXXXXX;;;;;;%%%%%%---%%%******&&&&&&&&&&&&&&&         ...                            ",
"                                   XXXXXX;;;;;;%%%%%%---%%%******&&&&&&&&&&&&&&&         ...                            ",
"                                ......%%%@@@@@@------@@@%%%&&&XXXXXXXXX&&&&&&&&&XXX      ...                            ",
"                                ......%%%@@@@@@------@@@%%%&&&XXXXXXXXX&&&&&&&&&XXX      ...                            ",
"                                ......%%%@@@@@@------@@@%%%&&&XXXXXXXXX&&&&&&&&&XXX      ...                            ",
"                                      @@@%%%---------%%%&&&...............XXX&&&XXX                                     ",
"                                      @@@%%%---------%%%&&&...............XXX&&&XXX                                     ",
"                                      @@@%%%---------%%%&&&...............XXX&&&XXX                                     ",
"                                            @@@@@@.........XXXXXX         ...XXXXXX                                     ",
"                                            @@@@@@.........XXXXXX         ...XXXXXX                                     ",
"                                            @@@@@@.........XXXXXX         ...XXXXXX                                     ",
"                                                     @@@%%%---...XXX         ...XXX                                     ",
"                                                     @@@%%%---...XXX         ...XXX                                     ",
"                                                     @@@%%%---...XXX         ...XXX                                     ",
"                                                  @@@------%%%---...XXX         ...                                     ",
"                                                  @@@------%%%---...XXX         ...                                     ",
"                                                  @@@------%%%---...XXX         ...                                     ",
"                                                  ...------***%%%---@@@XXX      ...                                     ",
"                                                  ...------***%%%---@@@XXX      ...                                     ",
"                                                  ...------***%%%---@@@XXX      ...                                     ",
"                                                  ...%%%******...%%%---...                                              ",
"                                                  ...%%%******...%%%---...                                              ",
"                                                  ...%%%******...%%%---...                                              ",
"                                                     ...***&&&...@@@---...                                              ",
"                                                     ...***&&&...@@@---...                                              ",
"                                                     ...***&&&...@@@---...                                              ",
"                                                  oooXXX&&&***...------...                                              ",
"                                                  oooXXX&&&***...------...                                              ",
"                                                  oooXXX&&&***...------...                                              ",
"                                               oooXXX&&&......;;;ooo...                                                 ",
"                                               oooXXX&&&......;;;ooo...                                                 ",
"                                               oooXXX&&&......;;;ooo...                                                 ",
"                                            ooo===XXX...===;;;===;;;...                                                 ",
"                                            ooo===XXX...===;;;===;;;...                                                 ",
"                                            ooo===XXX...===;;;===;;;...                                                 ",
"                                            ...===...;;;;;;;;;;;;ooo...                                                 ",
"                                            ...===...;;;;;;;;;;;;ooo...                                                 ",
"                                            ...===...;;;;;;;;;;;;ooo...                                                 ",
"                                            ...ooo...===;;;;;;;;;===......                                              ",
"                                            ...ooo...===;;;;;;;;;===......                                              ",
"                                            ...ooo...===;;;;;;;;;===......                                              ",
"                                               .........ooo;;;;;;ooo...===.........                                     ",
"                                               .........ooo;;;;;;ooo...===.........                                     ",
"                                               .........ooo;;;;;;ooo...===.........                                     ",
"                                                        ............;;;===++++++===...                                  ",
"                                                        ............;;;===++++++===...                                  ",
"                                                        ............;;;===++++++===...                                  ",
"                                                        ...===...;;;===ooo++++++;;;...                                  ",
"                                                        ...===...;;;===ooo++++++;;;...                                  ",
"                                                        ...===...;;;===ooo++++++;;;...                                  ",
"                                                     ...=========......+++$$$$$$;;;...                                  ",
"                                                     ...=========......+++$$$$$$;;;...                                  ",
"                                                     ...=========......+++$$$$$$;;;...                                  ",
"                                               ......OOOOOO======OOO===$$$OOO;;;...                                     ",
"                                               ......OOOOOO======OOO===$$$OOO;;;...                                     ",
"                                               ......OOOOOO======OOO===$$$OOO;;;...                                     ",
"                                            ...OOOOOOOOOOOOOOOOOO++++++$$$OOO===...                                     ",
"                                            ...OOOOOOOOOOOOOOOOOO++++++$$$OOO===...                                     ",
"                                            ...OOOOOOOOOOOOOOOOOO++++++$$$OOO===...                                     ",
"                                            ...=========OOO+++++++++++++++;;;...                                        ",
"                                            ...=========OOO+++++++++++++++;;;...                                        ",
"                                            ...=========OOO+++++++++++++++;;;...                                        ",
"                                            ............ooo===;;;;;;;;;;;;...                                           ",
"                                            ............ooo===;;;;;;;;;;;;...                                           ",
"                                            ............ooo===;;;;;;;;;;;;...                                           ",
"                                                        ..................                                              ",
"                                                        ..................                                              ",
"                                                        ..................                                              ",
"                                                                                                                        ",
"                                                                                                                        ",
"                                                                                                                        ",
"                                                                                                                        ",
"                                                                                                                        ",
"                                                                                                                        ",
"                                                                                                                        "
};
