/* XPM */
static char *result[] = {
/* columns rows colors chars-per-pixel */
"120 120 10 1 ",
"  c #301000",
". c #783808",
"X c #683010",
"o c #804000",
"O c #904800",
"+ c #B06018",
"@ c #E08830",
"# c #E8A040",
"$ c #F0B050",
"% c #F8E098",
/* pixels */
"%%%%%%%%%%                                                                                                              ",
"%%%%%%%%%%                                                                                                              ",
"%%%%%%%%%%                                                                                                              ",
"%%%%%%%%%%                                                                                                              ",
"%%%%%%%%%%                                                                                                              ",
"%%%%%%%%%%%%%%%%%%%%%%%%%%%%%%%%%%%%%%%%%%%%%%%%%%%%%%%%%%%%%%%%%%%%%%%%%%%%%%%%%%%%%%%%%%%%%%%%%%%%%%%%%$$$$$+++++     ",
"%%%%%%%%%%%%%%%%%%%%%%%%%%%%%%%%%%%%%%%%%%%%%%%%%%%%%%%%%%%%%%%%%%%%%%%%%%%%%%%%%%%%%%%%%%%%%%%%%%%%%%%%%$$$$$+++++     ",
"%%%%%%%%%%%%%%%%%%%%%%%%%%%%%%%%%%%%%%%%%%%%%%%%%%%%%%%%%%%%%%%%%%%%%%%%%%%%%%%%%%%%%%%%%%%%%%%%%%%%%%%%%$$$$$+++++     ",
"%%%%%%%%%%%%%%%%%%%%%%%%%%%%%%%%%%%%%%%%%%%%%%%%%%%%%%%%%%%%%%%%%%%%%%%%%%%%%%%%%%%%%%%%%%%%%%%%%%%%%%%%%$$$$$+++++     ",
"%%%%%%%%%%%%%%%%%%%%%%%%%%%%%%%%%%%%%%%%%%%%%%%%%%%%%%%%%%%%%%%%%%%%%%%%%%%%%%%%%%%%%%%%%%%%%%%%%%%%%%%%%$$$$$+++++     ",
"     @@@@@@@@@@$$$$$$$$$$$$$$$$$$$$$$$$$OOOOO++++++++++++++++++++++++++++++OOOOO$$$$$$$$$$$$$$$$$$$$$$$$$@@@@@XXXXX     ",
"     @@@@@@@@@@$$$$$$$$$$$$$$$$$$$$$$$$$OOOOO++++++++++++++++++++++++++++++OOOOO$$$$$$$$$$$$$$$$$$$$$$$$$@@@@@XXXXX     ",
"     @@@@@@@@@@$$$$$$$$$$$$$$$$$$$$$$$$$OOOOO++++++++++++++++++++++++++++++OOOOO$$$$$$$$$$$$$$$$$$$$$$$$$@@@@@XXXXX     ",
"     @@@@@@@@@@$$$$$$$$$$$$$$$$$$$$$$$$$OOOOO++++++++++++++++++++++++++++++OOOOO$$$$$$$$$$$$$$$$$$$$$$$$$@@@@@XXXXX     ",
"     @@@@@@@@@@$$$$$$$$$$$$$$$$$$$$$$$$$OOOOO++++++++++++++++++++++++++++++OOOOO$$$$$$$$$$$$$$$$$$$$$$$$$@@@@@XXXXX     ",
"     @@@@@++++++++++++++++++++++++++++++$$$$$OOOOOOOOOOOOOOOOOOOOOOOOO.....$$$$$@@@@@+++++@@@@@@@@@@@@@@@+++++XXXXX     ",
"     @@@@@++++++++++++++++++++++++++++++$$$$$OOOOOOOOOOOOOOOOOOOOOOOOO.....$$$$$@@@@@+++++@@@@@@@@@@@@@@@+++++XXXXX     ",
"     @@@@@++++++++++++++++++++++++++++++$$$$$OOOOOOOOOOOOOOOOOOOOOOOOO.....$$$$$@@@@@+++++@@@@@@@@@@@@@@@+++++XXXXX     ",
"     @@@@@++++++++++++++++++++++++++++++$$$$$OOOOOOOOOOOOOOOOOOOOOOOOO.....$$$$$@@@@@+++++@@@@@@@@@@@@@@@+++++XXXXX     ",
"     @@@@@++++++++++++++++++++++++++++++$$$$$OOOOOOOOOOOOOOOOOOOOOOOOO.....$$$$$@@@@@+++++@@@@@@@@@@@@@@@+++++XXXXX     ",
"     @@@@@+++++%%%%%ooooo+++++@@@@@@@@@@+++++$$$$$OOOOOOOOOOOOOOO.....$$$$$@@@@@+++++@@@@@%%%%%ooooo@@@@@+++++XXXXX     ",
"     @@@@@+++++%%%%%ooooo+++++@@@@@@@@@@+++++$$$$$OOOOOOOOOOOOOOO.....$$$$$@@@@@+++++@@@@@%%%%%ooooo@@@@@+++++XXXXX     ",
"     @@@@@+++++%%%%%ooooo+++++@@@@@@@@@@+++++$$$$$OOOOOOOOOOOOOOO.....$$$$$@@@@@+++++@@@@@%%%%%ooooo@@@@@+++++XXXXX     ",
"     @@@@@+++++%%%%%ooooo+++++@@@@@@@@@@+++++$$$$$OOOOOOOOOOOOOOO.....$$$$$@@@@@+++++@@@@@%%%%%ooooo@@@@@+++++XXXXX     ",
"     @@@@@+++++%%%%%ooooo+++++@@@@@@@@@@+++++$$$$$OOOOOOOOOOOOOOO.....$$$$$@@@@@+++++@@@@@%%%%%ooooo@@@@@+++++XXXXX     ",
"     @@@@@+++++ooooo     @@@@@+++++@@@@@@@@@@+++++$$$$$OOOOO.....$$$$$@@@@@+++++#####@@@@@ooooo     @@@@@+++++XXXXX     ",
"     @@@@@+++++ooooo     @@@@@+++++@@@@@@@@@@+++++$$$$$OOOOO.....$$$$$@@@@@+++++#####@@@@@ooooo     @@@@@+++++XXXXX     ",
"     @@@@@+++++ooooo     @@@@@+++++@@@@@@@@@@+++++$$$$$OOOOO.....$$$$$@@@@@+++++#####@@@@@ooooo     @@@@@+++++XXXXX     ",
"     @@@@@+++++ooooo     @@@@@+++++@@@@@@@@@@+++++$$$$$OOOOO.....$$$$$@@@@@+++++#####@@@@@ooooo     @@@@@+++++XXXXX     ",
"     @@@@@+++++ooooo     @@@@@+++++@@@@@@@@@@+++++$$$$$OOOOO.....$$$$$@@@@@+++++#####@@@@@ooooo     @@@@@+++++XXXXX     ",
"     @@@@@+++++@@@@@@@@@@OOOOO@@@@@@@@@@@@@@@@@@@@+++++.....$$$$$@@@@@OOOOO@@@@@@@@@@+++++@@@@@@@@@@@@@@@+++++XXXXX     ",
"     @@@@@+++++@@@@@@@@@@OOOOO@@@@@@@@@@@@@@@@@@@@+++++.....$$$$$@@@@@OOOOO@@@@@@@@@@+++++@@@@@@@@@@@@@@@+++++XXXXX     ",
"     @@@@@+++++@@@@@@@@@@OOOOO@@@@@@@@@@@@@@@@@@@@+++++.....$$$$$@@@@@OOOOO@@@@@@@@@@+++++@@@@@@@@@@@@@@@+++++XXXXX     ",
"     @@@@@+++++@@@@@@@@@@OOOOO@@@@@@@@@@@@@@@@@@@@+++++.....$$$$$@@@@@OOOOO@@@@@@@@@@+++++@@@@@@@@@@@@@@@+++++XXXXX     ",
"     @@@@@+++++@@@@@@@@@@OOOOO@@@@@@@@@@@@@@@@@@@@+++++.....$$$$$@@@@@OOOOO@@@@@@@@@@+++++@@@@@@@@@@@@@@@+++++XXXXX     ",
"     @@@@@OOOOO+++++@@@@@@@@@@+++++@@@@@@@@@@+++++.....$$$$$@@@@@OOOOO#####@@@@@OOOOO@@@@@#####@@@@@+++++oooooXXXXX     ",
"     @@@@@OOOOO+++++@@@@@@@@@@+++++@@@@@@@@@@+++++.....$$$$$@@@@@OOOOO#####@@@@@OOOOO@@@@@#####@@@@@+++++oooooXXXXX     ",
"     @@@@@OOOOO+++++@@@@@@@@@@+++++@@@@@@@@@@+++++.....$$$$$@@@@@OOOOO#####@@@@@OOOOO@@@@@#####@@@@@+++++oooooXXXXX     ",
"     @@@@@OOOOO+++++@@@@@@@@@@+++++@@@@@@@@@@+++++.....$$$$$@@@@@OOOOO#####@@@@@OOOOO@@@@@#####@@@@@+++++oooooXXXXX     ",
"     @@@@@OOOOO+++++@@@@@@@@@@+++++@@@@@@@@@@+++++.....$$$$$@@@@@OOOOO#####@@@@@OOOOO@@@@@#####@@@@@+++++oooooXXXXX     ",
"     @@@@@XXXXXOOOOO+++++@@@@@@@@@@@@@@@+++++.....$$$$$@@@@@+++++@@@@@@@@@@+++++@@@@@@@@@@@@@@@+++++oooooXXXXXXXXXX     ",
"     @@@@@XXXXXOOOOO+++++@@@@@@@@@@@@@@@+++++.....$$$$$@@@@@+++++@@@@@@@@@@+++++@@@@@@@@@@@@@@@+++++oooooXXXXXXXXXX     ",
"     @@@@@XXXXXOOOOO+++++@@@@@@@@@@@@@@@+++++.....$$$$$@@@@@+++++@@@@@@@@@@+++++@@@@@@@@@@@@@@@+++++oooooXXXXXXXXXX     ",
"     @@@@@XXXXXOOOOO+++++@@@@@@@@@@@@@@@+++++.....$$$$$@@@@@+++++@@@@@@@@@@+++++@@@@@@@@@@@@@@@+++++oooooXXXXXXXXXX     ",
"     @@@@@XXXXXOOOOO+++++@@@@@@@@@@@@@@@+++++.....$$$$$@@@@@+++++@@@@@@@@@@+++++@@@@@@@@@@@@@@@+++++oooooXXXXXXXXXX     ",
"     @@@@@+++++XXXXXOOOOO+++++@@@@@+++++.....$$$$$@@@@@+++++#####@@@@@#####@@@@@#####@@@@@+++++oooooXXXXX+++++XXXXX     ",
"     @@@@@+++++XXXXXOOOOO+++++@@@@@+++++.....$$$$$@@@@@+++++#####@@@@@#####@@@@@#####@@@@@+++++oooooXXXXX+++++XXXXX     ",
"     @@@@@+++++XXXXXOOOOO+++++@@@@@+++++.....$$$$$@@@@@+++++#####@@@@@#####@@@@@#####@@@@@+++++oooooXXXXX+++++XXXXX     ",
"     @@@@@+++++XXXXXOOOOO+++++@@@@@+++++.....$$$$$@@@@@+++++#####@@@@@#####@@@@@#####@@@@@+++++oooooXXXXX+++++XXXXX     ",
"     @@@@@+++++XXXXXOOOOO+++++@@@@@+++++.....$$$$$@@@@@+++++#####@@@@@#####@@@@@#####@@@@@+++++oooooXXXXX+++++XXXXX     ",
"     @@@@@+++++OOOOOXXXXXOOOOO+++++.....$$$$$@@@@@@@@@@#####@@@@@#####@@@@@#####@@@@@+++++oooooXXXXXOOOOO+++++XXXXX     ",
"     @@@@@+++++OOOOOXXXXXOOOOO+++++.....$$$$$@@@@@@@@@@#####@@@@@#####@@@@@#####@@@@@+++++oooooXXXXXOOOOO+++++XXXXX     ",
"     @@@@@+++++OOOOOXXXXXOOOOO+++++.....$$$$$@@@@@@@@@@#####@@@@@#####@@@@@#####@@@@@+++++oooooXXXXXOOOOO+++++XXXXX     ",
"     @@@@@+++++OOOOOXXXXXOOOOO+++++.....$$$$$@@@@@@@@@@#####@@@@@#####@@@@@#####@@@@@+++++oooooXXXXXOOOOO+++++XXXXX     ",
"     @@@@@+++++OOOOOXXXXXOOOOO+++++.....$$$$$@@@@@@@@@@#####@@@@@#####@@@@@#####@@@@@+++++oooooXXXXXOOOOO+++++XXXXX     ",
"     @@@@@+++++OOOOOOOOOOXXXXX.....$$$$$@@@@@##############################@@@@@+++++oooooXXXXXOOOOOOOOOO+++++XXXXX     ",
"     @@@@@+++++OOOOOOOOOOXXXXX.....$$$$$@@@@@##############################@@@@@+++++oooooXXXXXOOOOOOOOOO+++++XXXXX     ",
"     @@@@@+++++OOOOOOOOOOXXXXX.....$$$$$@@@@@##############################@@@@@+++++oooooXXXXXOOOOOOOOOO+++++XXXXX     ",
"     @@@@@+++++OOOOOOOOOOXXXXX.....$$$$$@@@@@##############################@@@@@+++++oooooXXXXXOOOOOOOOOO+++++XXXXX     ",
"     @@@@@+++++OOOOOOOOOOXXXXX.....$$$$$@@@@@##############################@@@@@+++++oooooXXXXXOOOOOOOOOO+++++XXXXX     ",
"     @@@@@+++++OOOOOOOOOO.....$$$$$@@@@@@@@@@#####@@@@@#####@@@@@#####@@@@@+++++oooooXXXXXoooooOOOOOOOOOO+++++XXXXX     ",
"     @@@@@+++++OOOOOOOOOO.....$$$$$@@@@@@@@@@#####@@@@@#####@@@@@#####@@@@@+++++oooooXXXXXoooooOOOOOOOOOO+++++XXXXX     ",
"     @@@@@+++++OOOOOOOOOO.....$$$$$@@@@@@@@@@#####@@@@@#####@@@@@#####@@@@@+++++oooooXXXXXoooooOOOOOOOOOO+++++XXXXX     ",
"     @@@@@+++++OOOOOOOOOO.....$$$$$@@@@@@@@@@#####@@@@@#####@@@@@#####@@@@@+++++oooooXXXXXoooooOOOOOOOOOO+++++XXXXX     ",
"     @@@@@+++++OOOOOOOOOO.....$$$$$@@@@@@@@@@#####@@@@@#####@@@@@#####@@@@@+++++oooooXXXXXoooooOOOOOOOOOO+++++XXXXX     ",
"     @@@@@+++++OOOOO.....$$$$$@@@@@+++++#########################@@@@@+++++oooooXXXXXooooo$$$$$OOOOOOOOOO+++++XXXXX     ",
"     @@@@@+++++OOOOO.....$$$$$@@@@@+++++#########################@@@@@+++++oooooXXXXXooooo$$$$$OOOOOOOOOO+++++XXXXX     ",
"     @@@@@+++++OOOOO.....$$$$$@@@@@+++++#########################@@@@@+++++oooooXXXXXooooo$$$$$OOOOOOOOOO+++++XXXXX     ",
"     @@@@@+++++OOOOO.....$$$$$@@@@@+++++#########################@@@@@+++++oooooXXXXXooooo$$$$$OOOOOOOOOO+++++XXXXX     ",
"     @@@@@+++++OOOOO.....$$$$$@@@@@+++++#########################@@@@@+++++oooooXXXXXooooo$$$$$OOOOOOOOOO+++++XXXXX     ",
"     @@@@@+++++.....$$$$$@@@@@+++++#####@@@@@#####@@@@@#####@@@@@+++++oooooXXXXX+++++@@@@@+++++$$$$$OOOOO+++++XXXXX     ",
"     @@@@@+++++.....$$$$$@@@@@+++++#####@@@@@#####@@@@@#####@@@@@+++++oooooXXXXX+++++@@@@@+++++$$$$$OOOOO+++++XXXXX     ",
"     @@@@@+++++.....$$$$$@@@@@+++++#####@@@@@#####@@@@@#####@@@@@+++++oooooXXXXX+++++@@@@@+++++$$$$$OOOOO+++++XXXXX     ",
"     @@@@@+++++.....$$$$$@@@@@+++++#####@@@@@#####@@@@@#####@@@@@+++++oooooXXXXX+++++@@@@@+++++$$$$$OOOOO+++++XXXXX     ",
"     @@@@@+++++.....$$$$$@@@@@+++++#####@@@@@#####@@@@@#####@@@@@+++++oooooXXXXX+++++@@@@@+++++$$$$$OOOOO+++++XXXXX     ",
"     @@@@@.....$$$$$@@@@@+++++##########@@@@@##########@@@@@+++++oooooXXXXX+++++@@@@@+++++@@@@@+++++$$$$$OOOOOXXXXX     ",
"     @@@@@.....$$$$$@@@@@+++++##########@@@@@##########@@@@@+++++oooooXXXXX+++++@@@@@+++++@@@@@+++++$$$$$OOOOOXXXXX     ",
"     @@@@@.....$$$$$@@@@@+++++##########@@@@@##########@@@@@+++++oooooXXXXX+++++@@@@@+++++@@@@@+++++$$$$$OOOOOXXXXX     ",
"     @@@@@.....$$$$$@@@@@+++++##########@@@@@##########@@@@@+++++oooooXXXXX+++++@@@@@+++++@@@@@+++++$$$$$OOOOOXXXXX     ",
"     @@@@@.....$$$$$@@@@@+++++##########@@@@@##########@@@@@+++++oooooXXXXX+++++@@@@@+++++@@@@@+++++$$$$$OOOOOXXXXX     ",
"     @@@@@$$$$$@@@@@###############@@@@@##########@@@@@+++++oooooXXXXX+++++@@@@@@@@@@@@@@@+++++@@@@@+++++@@@@@XXXXX     ",
"     @@@@@$$$$$@@@@@###############@@@@@##########@@@@@+++++oooooXXXXX+++++@@@@@@@@@@@@@@@+++++@@@@@+++++@@@@@XXXXX     ",
"     @@@@@$$$$$@@@@@###############@@@@@##########@@@@@+++++oooooXXXXX+++++@@@@@@@@@@@@@@@+++++@@@@@+++++@@@@@XXXXX     ",
"     @@@@@$$$$$@@@@@###############@@@@@##########@@@@@+++++oooooXXXXX+++++@@@@@@@@@@@@@@@+++++@@@@@+++++@@@@@XXXXX     ",
"     @@@@@$$$$$@@@@@###############@@@@@##########@@@@@+++++oooooXXXXX+++++@@@@@@@@@@@@@@@+++++@@@@@+++++@@@@@XXXXX     ",
"     @@@@@$$$$$@@@@@##########+++++##########@@@@@+++++oooooXXXXX+++++@@@@@OOOOO@@@@@@@@@@@@@@@@@@@@+++++@@@@@XXXXX     ",
"     @@@@@$$$$$@@@@@##########+++++##########@@@@@+++++oooooXXXXX+++++@@@@@OOOOO@@@@@@@@@@@@@@@@@@@@+++++@@@@@XXXXX     ",
"     @@@@@$$$$$@@@@@##########+++++##########@@@@@+++++oooooXXXXX+++++@@@@@OOOOO@@@@@@@@@@@@@@@@@@@@+++++@@@@@XXXXX     ",
"     @@@@@$$$$$@@@@@##########+++++##########@@@@@+++++oooooXXXXX+++++@@@@@OOOOO@@@@@@@@@@@@@@@@@@@@+++++@@@@@XXXXX     ",
"     @@@@@$$$$$@@@@@##########+++++##########@@@@@+++++oooooXXXXX+++++@@@@@OOOOO@@@@@@@@@@@@@@@@@@@@+++++@@@@@XXXXX     ",
"     @@@@@$$$$$@@@@@%%%%%ooooo##########@@@@@+++++oooooXXXXXXXXXX+++++@@@@@@@@@@+++++@@@@@%%%%%ooooo+++++@@@@@XXXXX     ",
"     @@@@@$$$$$@@@@@%%%%%ooooo##########@@@@@+++++oooooXXXXXXXXXX+++++@@@@@@@@@@+++++@@@@@%%%%%ooooo+++++@@@@@XXXXX     ",
"     @@@@@$$$$$@@@@@%%%%%ooooo##########@@@@@+++++oooooXXXXXXXXXX+++++@@@@@@@@@@+++++@@@@@%%%%%ooooo+++++@@@@@XXXXX     ",
"     @@@@@$$$$$@@@@@%%%%%ooooo##########@@@@@+++++oooooXXXXXXXXXX+++++@@@@@@@@@@+++++@@@@@%%%%%ooooo+++++@@@@@XXXXX     ",
"     @@@@@$$$$$@@@@@%%%%%ooooo##########@@@@@+++++oooooXXXXXXXXXX+++++@@@@@@@@@@+++++@@@@@%%%%%ooooo+++++@@@@@XXXXX     ",
"     @@@@@$$$$$@@@@@ooooo     @@@@@@@@@@+++++oooooXXXXXOOOOOOOOOOXXXXX+++++@@@@@@@@@@+++++ooooo     +++++@@@@@XXXXX     ",
"     @@@@@$$$$$@@@@@ooooo     @@@@@@@@@@+++++oooooXXXXXOOOOOOOOOOXXXXX+++++@@@@@@@@@@+++++ooooo     +++++@@@@@XXXXX     ",
"     @@@@@$$$$$@@@@@ooooo     @@@@@@@@@@+++++oooooXXXXXOOOOOOOOOOXXXXX+++++@@@@@@@@@@+++++ooooo     +++++@@@@@XXXXX     ",
"     @@@@@$$$$$@@@@@ooooo     @@@@@@@@@@+++++oooooXXXXXOOOOOOOOOOXXXXX+++++@@@@@@@@@@+++++ooooo     +++++@@@@@XXXXX     ",
"     @@@@@$$$$$@@@@@ooooo     @@@@@@@@@@+++++oooooXXXXXOOOOOOOOOOXXXXX+++++@@@@@@@@@@+++++ooooo     +++++@@@@@XXXXX     ",
"     @@@@@$$$$$+++++++++++++++++++++++++oooooXXXXXOOOOOOOOOOOOOOOOOOOOXXXXX++++++++++++++++++++++++++++++@@@@@XXXXX     ",
"     @@@@@$$$$$+++++++++++++++++++++++++oooooXXXXXOOOOOOOOOOOOOOOOOOOOXXXXX++++++++++++++++++++++++++++++@@@@@XXXXX     ",
"     @@@@@$$$$$+++++++++++++++++++++++++oooooXXXXXOOOOOOOOOOOOOOOOOOOOXXXXX++++++++++++++++++++++++++++++@@@@@XXXXX     ",
"     @@@@@$$$$$+++++++++++++++++++++++++oooooXXXXXOOOOOOOOOOOOOOOOOOOOXXXXX++++++++++++++++++++++++++++++@@@@@XXXXX     ",
"     @@@@@$$$$$+++++++++++++++++++++++++oooooXXXXXOOOOOOOOOOOOOOOOOOOOXXXXX++++++++++++++++++++++++++++++@@@@@XXXXX     ",
"     @@@@@ooooooooooooooooooooooooooooooXXXXX++++++++++++++++++++++++++++++XXXXXXXXXXXXXXXXXXXXXXXXXXXXXXXXXXXXXXXX     ",
"     @@@@@ooooooooooooooooooooooooooooooXXXXX++++++++++++++++++++++++++++++XXXXXXXXXXXXXXXXXXXXXXXXXXXXXXXXXXXXXXXX     ",
"     @@@@@ooooooooooooooooooooooooooooooXXXXX++++++++++++++++++++++++++++++XXXXXXXXXXXXXXXXXXXXXXXXXXXXXXXXXXXXXXXX     ",
"     @@@@@ooooooooooooooooooooooooooooooXXXXX++++++++++++++++++++++++++++++XXXXXXXXXXXXXXXXXXXXXXXXXXXXXXXXXXXXXXXX     ",
"     @@@@@ooooooooooooooooooooooooooooooXXXXX++++++++++++++++++++++++++++++XXXXXXXXXXXXXXXXXXXXXXXXXXXXXXXXXXXXXXXX     ",
"     +++++ooooo                                                                                               XXXXX     ",
"     +++++ooooo                                                                                               XXXXX     ",
"     +++++ooooo                                                                                               XXXXX     ",
"     +++++ooooo                                                                                               XXXXX     ",
"     +++++ooooo                                                                                               XXXXX     ",
"                                                                                                                        ",
"                                                                                                                        ",
"                                                                                                                        ",
"                                                                                                                        ",
"                                                                                                                        "
};
