/* XPM */
static char *result[] = {
/* columns rows colors chars-per-pixel */
"120 120 11 1 ",
"  c #452D0B",
". c #452D0C",
"X c #5D3306",
"o c #5D3307",
"O c #5D3308",
"+ c #874B27",
"@ c #874B28",
"# c #9E5721",
"$ c #9E5722",
"% c #9F5722",
"& c #B67533",
/* pixels */
"&&&&&&&@@@@@@@@OoOOOOOoOoooOoOOOoooo@@@@@@@&&&&&&&&&&&&&@@@@@@@@.......@@@@@@&&&&&&&@@@@@@@@.............oooOOOOOoooooOo",
"&&&&&&&@@@@@@@@oOoooOoooOOoOoooOoooo@@@@@@@&&&&&&&&&&&&&@@@@@@@@.......@@@@@@&&&&&&&@@@@@@@@.............ooOoOoooooooooo",
"&&&&&&&@@@@@@@@oOooooOoOooooooooooOO@@@@@@@&&&&&&&&&&&&&@@@@@@@@.......@@@@@@&&&&&&&@@@@@@@@.............ooOOOOoooOOOOOO",
"&&&&&&&@@@@@@@@oOooooOoOooooooooooOO@@@@@@@&&&&&&&&&&&&&@@@@@@@@.......@@@@@@&&&&&&&@@@@@@@@.............ooOOOOoooOOOOOO",
"&&&&&&&@@@@@@@@ooOOOOOooOOooOooOOoOO@@@@@@@&&&&&&&&&&&&&@@@@@@@@.......@@@@@@&&&&&&&@@@@@@@@.............ooOOoOOOooOoooo",
"&&&&&&&@@@@@@@@OooooooOooooooooOoooo+@@@@@@&&&&&&&&&&&&&@@@@@@@@.......@@@@@@&&&&&&&@@@@@@@@.............ooooooOOoooOOoo",
"&&&&&&&@@@+@@@@oOOoooooOoooOOOOooooo@@@@@@@&&&&&&&&&&&&&@@@@@@@@.......@@@@@@&&&&&&&@@@@@@@@.............oooOoOooooOOOOo",
"&&&&&&&&&&&&&&&@@@@@@@OOOOoo@@@@+@@@&&&&&&&&&&&&&@@@@@@@.....................@@@@@@@..............OOooOooOOOooOoooOooooO",
"&&&&&&&&&&&&&&&@@@@@@@OOOOoo@@@@+@@@&&&&&&&&&&&&&@@@@@@@.....................@@@@@@@..............OOooOooOOOooOoooOooooO",
"&&&&&&&&&&&&&&&@@@@@@@ooOOoO@@@@@@@@&&&&&&&&&&&&&@@@@@@@.....................@@@@@@+..............OooooOoOOoooOoooOoooOO",
"&&&&&&&&&&&&&&&@@@@@@@OOOOOo@@@@@@@@&&&&&&&&&&&&&@@@@@@@.....................@@@@@@@..............OooooooOOOoOooooOoOOOO",
"&&&&&&&&&&&&&&&@@@@@@@ooOOOO@@@@@@++&&&&&&&&&&&&&@+@@@@@.....................@@@@@@@..............oOooOooOOOOooOOoOOooOo",
"&&&&&&&&&&&&&&&@@@@@@@ooOOoo@++@@@@@&&&&&&&&&&&&&@@@@@@@.....................@@@@@+@..............ooOOOoOooooOooooooooOo",
"@@@@@@@&&&&&&&&&&&&&&&@@@@@@&&&&&&&&&&&&&&&@+@@@@...............oooOOoo.....................ooooooooooOooooooooOOoooooOo",
"@@@@@@@&&&&&&&&&&&&&&&@@@@@@&&&&&&&&&&&&&&&@+@@@@...............oooOOoo.....................ooooooooooOooooooooOOoooooOo",
"@@@@@@+&&&&&&&&&&&&&&&@@@@@@&&&&&&&&&&&&&&&@@@@@+...............ooOoooo.....................ooOOoooOOOoOoOOooOooooOoOOOo",
"@@@@@@+&&&&&&&&&&&&&&&@@@@@@&&&&&&&&&&&&&&&@@@@@@...............OooooOO.....................oOooOooOooooOooOoooOOooOoooo",
"+@@@@@@&&&&&&&&&&&&&&&@@@@@@&&&&&&&&&&&&&&&@@@@@@...............ooooooo.....................OoOOOoooooOOOOOoooooooOooooo",
"@@@@@@@&&&&&&&&&&&&&&&@@@@@@&&&&&&&&&&&&&&&@@++@@...............OoooooO.....................OOOOOOooooOoOooOoOoooOOooooO",
"@@@@@@@&&&&&&&&&&&&&&&@@@@@@&&&&&&&&&&&&&&&@@++@@...............OoooooO.....................OOOOOOooooOoOooOoOoooOOooooO",
"@@@@@@@&&&&&&&&&&&&&&&@@@@@@&&&&&&&&&&&&&&&@@@@@@...............ooooooo.....................OoooOoooooooooooooooooOOoooo",
".......@@+@+@@@&&&&&&&&&&&&&&&&&&&&&@@@@@@@.............OOoOoOOOoOooooooooooo.......ooOooOOoOoOOooOoooooOoooooOoo.......",
".......@@+@@+@@&&&&&&&&&&&&&&&&&&&&&@+@@@@+.............ooooooooooooooOoooooo.......OOoooOOOOOooooOOOOoOoOOoooooo.......",
".......@@+@@@@@&&&&&&&&&&&&&&&&&&&&&@@@@@@@.............ooooooOOoooooooooOOoO.......ooOooooOooOOoooOooooooooooooo.......",
".......@@@@@@@@&&&&&&&&&&&&&&&&&&&&&@+@@@@@.............ooooooOOooOoooOoooooo.......ooooOOOOooooOOooOOoooooOooooo.......",
".......@@@@@@@@&&&&&&&&&&&&&&&&&&&&&@+@@@@@.............ooooooOOooOoooOoooooo.......ooooOOOOooooOOooOOoooooOooooo.......",
".......@@@@@@@@&&&&&&&&&&&&&&&&&&&&&@+@@@@@.............OOooooooOooooooOOoooo.......oooOooooOOooooooooOooooooooOO.......",
".......++@@@@@@&&&&&&&&&&&&&&&&&&&&&@@@+@@@.............oooOoOooooooooOOoOOoo.......oooooooooOooooooooooOoooooooo.......",
"...............@@+@@@+&&&&&&+@@+@@@@.............oooooooooOooOOOoooooOOooooOooooooooOOooOoooOOooOoooooOoo...............",
"...............@@@++@@&&&&&&@@@+@@@@.............OOooooooooooOooooooooooOooooOoooooooooOOoooOoooOOoOoooOo...............",
"...............@@@++@@&&&&&&@@@+@@@@.............OOooooooooooOooooooooooOooooOoooooooooOOoooOoooOOoOoooOo...............",
"...............+@@@@++&&&&&&@@@@++@@.............oooooOoOOoOooooooooooooooooooooOooooooooooooOooooooooooo...............",
"...............@++@@@+&&&&&&@@@@@@@@.............OoooOOoooooooOOOoOOOoOooooooooooooooooOoOOoooooooooooooO...............",
"...............@+@@@@@&&&&&&@@@@@@@@.............ooooooooooOooooOooOOooooooooooooOooooooooooooooooOoooooo...............",
"...............@@@++@+&&&&&&@+++@@@@.............ooooOoooooOooOOOooooooooooooooooooooooooOOooooooOoooooOo...............",
"...............@@@++@+&&&&&&@+++@@@@.............ooooOoooooOooOOOooooooooooooooooooooooooOOooooooOoooooOo...............",
"Ooooooo...............@@@@@+...............ooooOooooooooooooOooooooOOooOOoooooooOooOooooooooooOOoo...............@@+@@+@",
"ooooOoo...............@@@@@@...............ooOOooooooooOOOoOooooooooooooOooooooooOoooooooooooooooO...............@@+@@+@",
"oOooooo...............@@+++@...............ooooooooooooooooooOOOooooooooooooooooOoooooooooooooOOoo...............@@@@@@+",
"ooooooo...............++@@@@...............OooooooOooOooooooooooooooooooOoooooooooooooooooooooOOoo...............+++@@@+",
"ooooooo...............@+++++...............ooooOooOOOoooOOOooOooooooooooOooooooooooOooOooooooooooo...............@++@@++",
"ooooooo...............@+++++...............ooooOooOOOoooOOOooOooooooooooOooooooooooOooOooooooooooo...............@++@@++",
"oOoooooOOoooooo.....................ooOooooooooOooOoooooOOoOoooo.......ooooooooooooooooooooo.............@@@@++@@&&&&&&&",
"ooooooooooooooo.....................oooooooooooooooooooooooOoooo.......oooooooooooooooOooooo.............@@++@+@@&&&&&&&",
"ooOOOooOOoooooo.....................oooooooooooooooooooooooooooo.......ooooooooooooooooooooo.............++@@@@@@&&&&&&&",
"ooooooooooooooo..... ...............oooooooooooooooooooooooooooo.......ooooooooooooooooooooO. ...........+++@++@@&&&&&&&",
"ooooooooooooooo..... ...............oooooooooooooooooooooooooooo.......ooooooooooooooooooooO. ...........+++@++@@&&&&&&&",
"ooooooooooooooo................ . ..oooooooooooooooooooooooooooo...  ..ooooooooooooooooooooo ............@@+@+@@@&&&&&&&",
"ooooooooooooooo........... .........oooooooooooooooooooooooooooo...  ..ooooooooooooooooooooo ............++@++@@@&&&&&&&",
"oooooooooooooooooooooo......oooooooooooooooooooooooooooo.... ..... ..........ooooooo.. .   .......@+@@++@&&&&&&&&&&&&&&&",
"oooooooooooooooooooooo .  ..oooooooooooooooooooooooooooo.. ......  ..........ooooooo... ......... +@+++@@&&&&&&&&&&&&&&&",
"oooooooooooooooooooooo......oooooooooooooooooooooooooooo......  ........... .ooooooo...  .........@@@@++@&&&&&&&&&&&&&&&",
"oooooooooooooooooooooo......oooooooooooooooooooooooooooo......  ........... .ooooooo...  .........@@@@++@&&&&&&&&&&&&&&&",
"oooooooooooooooooooooo..... oooooooooooooooooooooooooooo......   ............ooooooo............  ++++++@&&&&&&&&&&&&&&&",
"oooooooooooooooooooooo......oooooooooooooooooooooooooooo  ............. .....ooooooo............ .@@++@+@&&&&&&&&&&&&&&&",
"oooooooooooooooooooooo.    .oooooooooooooooooooooooooooo... ...... ... . ... ooooooo.... .....  ..+@++@@+&&&&&&&&&&&&&&&",
"ooooooooooooooooooooooooooooooooooooooooooooooooo    ...........++++++@    .. ......  .. ...+@@@++&&&&&&&&&&&&&&&+@@++@+",
"ooooooooooooooooooooooooooooooooooooooooooooooooo    ...........++++++@    .. ......  .. ...+@@@++&&&&&&&&&&&&&&&+@@++@+",
"ooooooooooooooooooooooooooooooooooooooooooooooooo. ... .........+@+@@+@  ..  .......    .  .++++@+&&&&&&&&&&&&&&&+++@@++",
"ooooooooooooooooooooooooooooooooooooooooooooooooo..... .......  @+@@@++.......  ...... .   .++++++&&&&&&&&&&&&&&&+@@++++",
"ooooooooooooooooooooooooooooooooooooooooooooooooo..  . ...... ..@+++++@ .  ...... ...... ...+@+++@&&&&&&&&&&&&&&&+++@@++",
"ooooooooooooooooooooooooooooooooooooooooooooooooo. .. ..... ....+++++@@    .    ..    .. ...++++++&&&&&&&&&&&&&&&@@+++++",
".....  oooooooooooooooooooooooooooooooooooo .  .. ...  .@@@++@++&&&&&&&@@++++.......++++@@@@&&&&&&&&&&&&&+++++@++ooooooo",
".....  oooooooooooooooooooooooooooooooooooo .  .. ...  .@@@++@++&&&&&&&@@++++.......++++@@@@&&&&&&&&&&&&&+++++@++ooooooo",
" ......oooooooooooooooooooooooooooooooooooo....  . ... .++@+++++&&&&&&&++++++ .... .++@+++++&&&&&&&&&&&&&++++++++ooooooo",
" ......oooooooooooooooooooooooooooooooooooo.   .  .  ...@@++++++&&&&&&&++++++.   .  ++++++++&&&&&&&&&&&&&@@++++++ooooooo",
"  ..   oooooooooooooooooooooooooooooooooooo..   ...     ++++++++&&&&&&&@@++++ ...  .++++++++&&&&&&&&&&&&&++@@+@++ooooooo",
"       oooooooooooooooooooooooooooooooooooo    ....  . .++++@@@@&&&&&&&++++++.   ...++++++++&&&&&&&&&&&&&+++@+@++ooooooo",
"       oooooooooooooooooooooooooooooooooooo    ....  . .++++@@@@&&&&&&&++++++.   ...++++++++&&&&&&&&&&&&&+++@+@++ooooooo",
"....   oooooooooooooooooooooooooooooooooooo.... .    .. ++++++++&&&&&&&++++++.......++++++++&&&&&&&&&&&&&++++++++ooooooo",
"..   . .. .    ooooooooooooooooooooo  .....  .. .+++++++&&&&&&&&&&&&&&&&&&&&&@++++++&&&&&&&&&&&&&&++++@++ooooooooooooooo",
"..  .. ...     ooooooooooooooooooooo    .... ... ++++++@&&&&&&&&&&&&&&&&&&&&&+++++++&&&&&&&&&&&&&&+++++++ooooooooooooooo",
"..  .. ....    ooooooooooooooooooooo. ..  . .   .++++++@&&&&&&&&&&&&&&&&&&&&&+++++++&&&&&&&&&&&&&&++@@++@ooooooooooooooo",
"..  . .  . .   ooooooooooooooooooooo   .    .  . ++++@++&&&&&&&&&&&&&&&&&&&&&+++++++&&&&&&&&&&&&&&+++++++ooooooooooooooo",
"..  . .  . .   ooooooooooooooooooooo   .    .  . ++++@++&&&&&&&&&&&&&&&&&&&&&+++++++&&&&&&&&&&&&&&+++++++ooooooooooooooo",
"..  .  ..      ooooooooooooooooooooo  ..  ...   .+++++++&&&&&&&&&&&&&&&&&&&&&+++++++&&&&&&&&&&&&&&+++++++ooooooooooooooo",
"      .     .  ooooooooooooooooooooo .    . .  . +++++++&&&&&&&&&&&&&&&&&&&&&+++++++&&&&&&&&&&&&&&+++++++ooooooooooooooo",
"+++++++.. ...  ...    oooooo.    .    .   .++++++&&&&&&&&&&&&&&&+++++++&&&&&&&&&&&&&&&&&&&&&++++++ooooooooooooooo%$$$$$$",
"+++++++...   ..  .    oooooo ...        ...++++++&&&&&&&&&&&&&&&+++++++&&&&&&&&&&&&&&&&&&&&&++++++ooooooooooooooo$%$$$$$",
"+++++++...   ..  .    oooooo ...        ...++++++&&&&&&&&&&&&&&&+++++++&&&&&&&&&&&&&&&&&&&&&++++++ooooooooooooooo$%$$$$$",
"+++++++    .    .     oooooo    ..    ..   ++++++&&&&&&&&&&&&&&&+++++++&&&&&&&&&&&&&&&&&&&&&++++++ooooooooooooooo$$#$$$$",
"+++++++      .. .    .oooooo    .          ++++++&&&&&&&&&&&&&&&+++++++&&&&&&&&&&&&&&&&&&&&&++++++ooooooooooooooo$$$$$$$",
"+++++++   .  ..       oooooo        . ..  .++++++&&&&&&&&&&&&&&&+++++++&&&&&&&&&&&&&&&&&&&&&++++++ooooooooooooooo$$$$$$$",
"+++++++  ..  ..      .oooooo .. .   ..  .. ++++++&&&&&&&&&&&&&&&+++++++&&&&&&&&&&&&&&&&&&&&&++++++ooooooooooooooo$$$$$$$",
"&&&&&&&++++++++     .               +++++++&&&&&&&&&&&&&++++++++ooooooo++++++&&&&&&&++++++++ooooooooooooo$$#$$$$$$$$##$$",
"&&&&&&&++++++++     .               +++++++&&&&&&&&&&&&&++++++++ooooooo++++++&&&&&&&++++++++ooooooooooooo$$#$$$$$$$$##$$",
"&&&&&&&++++++++      ..   .  ..  .  +++++++&&&&&&&&&&&&&++++++++ooooooo++++++&&&&&&&++++++++ooooooooooooo$$$#$$####$$$#$",
"&&&&&&&++++++++  .  .        ..     +++++++&&&&&&&&&&&&&++++++++ooooooo++++++&&&&&&&++++++++ooooooooooooo$$##$$$$$$$$$$$",
"&&&&&&&++++++++ . ..   .            +++++++&&&&&&&&&&&&&++++++++ooooooo++++++&&&&&&&++++++++ooooooooooooo###$$$$$##$$$$$",
"&&&&&&&++++++++       .         .   +++++++&&&&&&&&&&&&&++++++++ooooooo++++++&&&&&&&++++++++ooooooooooooo$$$$$$$$$#$$$$$",
"&&&&&&&++++++++       .         .   +++++++&&&&&&&&&&&&&++++++++ooooooo++++++&&&&&&&++++++++ooooooooooooo$$$$$$$$$#$$$$$",
"&&&&&&&&&&&&&&&+++++++  ..  ++++++++&&&&&&&&&&&&&+++++++ooooooooooooooooooooo+++++++oooooooooooooo$$$$#$#$$$$$$$$#$$$$$$",
"&&&&&&&&&&&&&&&+++++++      ++++++++&&&&&&&&&&&&&+++++++ooooooooooooooooooooo+++++++oooooooooooooo$####$#$$$$#$##$$$$$$$",
"&&&&&&&&&&&&&&&+++++++      ++++++++&&&&&&&&&&&&&+++++++ooooooooooooooooooooo+++++++oooooooooooooo#$$$$$#$$$$$$$$##$$$$$",
"&&&&&&&&&&&&&&&+++++++      ++++++++&&&&&&&&&&&&&+++++++ooooooooooooooooooooo+++++++oooooooooooooo#$$$$##$$$$$$$$$$#$$#$",
"&&&&&&&&&&&&&&&+++++++      ++++++++&&&&&&&&&&&&&+++++++ooooooooooooooooooooo+++++++oooooooooooooo#$$$$##$$$$$$$$$$#$$#$",
"&&&&&&&&&&&&&&&+++++++      ++++++++&&&&&&&&&&&&&+++++++ooooooooooooooooooooo+++++++oooooooooooooo#$$$$##$$#$$###$$#$$#$",
"&&&&&&&&&&&&&&&+++++++      ++++++++&&&&&&&&&&&&&+++++++ooooooooooooooooooooo+++++++oooooooooooooo#$##$$$##$$$$$$$$$$$#$",
"+++++++&&&&&&&&&&&&&&&++++++&&&&&&&&&&&&&&&++++++ooooooooooooooo$#$###$ooooooooooooooooooooo#$##$$$$$$$$###$$$######$$$$",
"+++++++&&&&&&&&&&&&&&&++++++&&&&&&&&&&&&&&&++++++ooooooooooooooo##$####ooooooooooooooooooooo$$###$#$$$$#$###$$#$$$$$$$#$",
"+++++++&&&&&&&&&&&&&&&++++++&&&&&&&&&&&&&&&++++++XoooooooooXoooo#$$###$ooooooooooooooooooooX#$$$$$####$$$$$$#$###$#$$$$#",
"+++++++&&&&&&&&&&&&&&&++++++&&&&&&&&&&&&&&&++++++XoooooooooXoooo#$$###$ooooooooooooooooooooX#$$$$$####$$$$$$#$###$#$$$$#",
"+++++++&&&&&&&&&&&&&&&++++++&&&&&&&&&&&&&&&++++++oooooooooooooXX$$$###$ooooooooooXooXXoooooo#$$$$$$$$$$##$$$#$$###$#$$#$",
"+++++++&&&&&&&&&&&&&&&++++++&&&&&&&&&&&&&&&++++++ooooXoXoooooooo###$$##oooooooooXooooooooooo#$##$###$$########$$$#$$##$$",
"+++++++&&&&&&&&&&&&&&&++++++&&&&&&&&&&&&&&&++++++ooooooooooooooo$$###$#ooooXooooooooooXooooo####$##$$$#####$$#####$#####",
"oXooXoo++++++++&&&&&&&&&&&&&&&&&&&&&+++++++oXooooooooooo$$##$#$$$$#$$###$####XoooooX##$$$##$#####$####$#$##$$##$$ooooooo",
"oXooXoo++++++++&&&&&&&&&&&&&&&&&&&&&+++++++oXooooooooooo$$##$#$$$$#$$###$####XoooooX##$$$##$#####$####$#$##$$##$$ooooooo",
"ooXXooo++++++++&&&&&&&&&&&&&&&&&&&&&+++++++Xoooooooooooo###$#####$###$##$$$$$ooooooX##$#$##$####$#$$###$$##$#####ooooooo",
"ooooXoo++++++++&&&&&&&&&&&&&&&&&&&&&+++++++oooooooooooXo$$####$$#$###$$#$##$$XooooXo##############$$###$$###$##$$ooXoooo",
"ooooXoo++++++++&&&&&&&&&&&&&&&&&&&&&+++++++XXooooooooooX$$###$$$#$####$##$$#$oXXoooX###$#$$##$########$#$##$$#$##ooooooo",
"ooXXXoo++++++++&&&&&&&&&&&&&&&&&&&&&+++++++oXooXXooooXoo$$$#######$#####$##$#ooooXoo##$$#####$##$########$$$$####ooooooo",
"XooooXoooooooXX+++++++&&&&&&++++++++oXooXXXoXXXoX#$$$#####$#######$$$$###$$$$############$$#####$$#$#####oooooXooXXooooo",
"XooooXoooooooXX+++++++&&&&&&++++++++oXooXXXoXXXoX#$$$#####$#######$$$$###$$$$############$$#####$$#$#####oooooXooXXooooo",
"XXoooooooXoXooo+++++++&&&&&&++++++++XXXooooXXXXoo$###############$$###$##$$#$#$$#$$$$$#$###$###########$#XXooXooooXooooX",
"oXXXoooXXXXoooo+++++++&&&&&&++++++++oooXXXXXooooo#$#######$##$$$###$$###$$$#####$######$#$$##$$$##$######ooooooXXXXooooX",
"oooooXooooXoooo+++++++&&&&&&++++++++oooooooXXXXXo$####$$####$###$####$######$#$$##$###$##########$$######oooXXoXXooooooo",
"XXXXoXoooooooXX+++++++&&&&&&++++++++oXXoXXXooXXoo$$####$$$$###$$###$$##$####$$#####$$$#$#$$#$#$$#$##$$###ooooXoXXooXXXoX",
"XXXXoXoooooooXX+++++++&&&&&&++++++++oXXoXXXooXXoo$$####$$$$###$$###$$##$####$$#####$$$#$#$$#$#$$#$##$$###ooooXoXXooXXXoX",
"XoooXoXXXXooXoo+++++++&&&&&&++++++++XooXoooXXoooX##################$$#$#############$$##$####$##$#####$##XXooXoooXooooXo",
"#$#####ooXoooXXoooooXo++++++ooooXoooooXXXXo#####$#$#######$##$########$######$#####$####$###$#####ooooXXXXXoXXXXX+++++++"
};
