/* XPM */
static char *ed973aee18094fc287cd67cc98f88368UqCIszLZjSEJsvgM[] = {
/* columns rows colors chars-per-pixel */
"120 120 26 1 ",
"  c #220B03",
". c #220C03",
"X c #220C04",
"o c #220D04",
"O c #220C05",
"+ c #220D05",
"@ c #3F1C11",
"# c #3F1C12",
"$ c #3F1D12",
"% c #4B220B",
"& c #4B220C",
"* c #4B220D",
"= c #5D2D03",
"- c #5D2D04",
"; c #5D2E04",
": c #5D2E05",
"> c #814511",
", c #814512",
"< c #A46322",
"1 c #A56322",
"2 c #AA752D",
"3 c #AB752D",
"4 c #AA752E",
"5 c #AB752E",
"6 c #B08139",
"7 c #B18139",
/* pixels */
"111111111111111111111111oooooooo5555555555551111,,,,****oooooooo****,,,,1111555555555555oooooooo111111111111111111111111",
"111111111111111111111111oooooooo5555555555551111,,,,****oooooooo****,,,,1111555555555555oooooooo111111111111111111111111",
"111111111111111111111111oooooooo5555555555551111,,,,****oooooooo****,,,,1111555555555555oooooooo111111111111111111111111",
"111111111111111111111111oooooooo5555555555551111,,,,****oooooooo****,,,,1111555555555555oooooooo111111111111111111111111",
"111111111111111111111111oooooooo5555555555551111,,,,****oooooooo****,,,,1111555555555555oooooooo111111111111111111111111",
"111111111111111111111111oooooooo5555555555551111,,,,****oooooooo****,,,,1111555555555555oooooooo111111111111111111111111",
"111111111111111111111111oooooooo5555555555551111,,,,****oooooooo****,,,,1111555555555555oooooooo111111111111111111111111",
"111111111111111111111111oooooooo5555555555551111,,,,****oooooooo****,,,,1111555555555555oooooooo111111111111111111111111",
"111111111111111111111111oooooooo5555555555551111,,,,****oooooooo****,,,,1111555555555555oooooooo111111111111111111111111",
"111111111111111111111111oooooooo5555555555551111,,,,****oooooooo****,,,,1111555555555555oooooooo111111111111111111111111",
"111111111111111111111111oooooooo5555555555551111,,,,****oooooooo****,,,,1111555555555555oooooooo111111111111111111111111",
"111111111111111111111111oooooooo5555555555551111,,,,****oooooooo****,,,,1111555555555555oooooooo111111111111111111111111",
"111111111111111111111111oooooooo5555555555551111,,,,****oooooooo****,,,,1111555555555555oooooooo111111111111111111111111",
"111111111111111111111111oooooooo5555555555551111,,,,****oooooooo****,,,,1111555555555555oooooooo111111111111111111111111",
"111111111111111111111111oooooooo5555555555551111,,,,****oooooooo****,,,,1111555555555555oooooooo111111111111111111111111",
"111111111111111111111111oooooooo5555555555551111,,,,****oooooooo****,,,,1111555555555555oooooooo111111111111111111111111",
"111111111111111111111111oooooooo5555555555551111,,,,****oooooooo****,,,,1111555555555555oooooooo111111111111111111111111",
"111111111111111111111111oooooooo5555555555551111,,,,****oooooooo****,,,,1111555555555555oooooooo111111111111111111111111",
"111111111111111111111111oooooooo5555555555551111,,,,****oooooooo****,,,,1111555555555555oooooooo111111111111111111111111",
"111111111111111111111111oooooooo5555555555551111,,,,****oooooooo****,,,,1111555555555555oooooooo111111111111111111111111",
"111111111111111111111111oooooooo5555555555551111,,,,****oooooooo****,,,,1111555555555555oooooooo111111111111111111111111",
"111111111111111111111111oooooooo5555555555551111,,,,****oooooooo****,,,,1111555555555555oooooooo111111111111111111111111",
"111111111111111111111111oooooooo5555555555551111,,,,****oooooooo****,,,,1111555555555555oooooooo111111111111111111111111",
"111111111111111111111111oooooooo5555555555551111,,,,****oooooooo****,,,,1111555555555555oooooooo111111111111111111111111",
"111111111111111111111111oooooooo5555555555551111,,,,****oooooooo****,,,,1111555555555555oooooooo111111111111111111111111",
"111111111111111111111111oooooooo5555555555551111,,,,****oooooooo****,,,,1111555555555555oooooooo111111111111111111111111",
"111111111111111111111111oooooooo5555555555551111,,,,****oooooooo****,,,,1111555555555555oooooooo111111111111111111111111",
"111111111111111111111111oooooooo5555555555551111,,,,****oooooooo****,,,,1111555555555555oooooooo111111111111111111111111",
"oooooooooooooooooooooooooooooooooooooooooooooooooooooooooooooooooooooooooooooooooooooooooooooooooooooooooooooooooooooooo",
"oooooooooooooooooooooooooooooooooooooooooooooooooooooooooooooooooooooooooooooooooooooooooooooooooooooooooooooooooooooooo",
"oooooooooooooooooooooooooooooooooooooooooooooooooooooooooooooooooooooooooooooooooooooooooooooooooooooooooooooooooooooooo",
"oooooooooooooooooooooooooooooooooooooooooooooooooooooooooooooooooooooooooooooooooooooooooooooooooooooooooooooooooooooooo",
"777777777777777777777777oooooooo::::::::::::****$$$$oooooooooooooooo$$$$****::::::::::::oooooooo777777777777777777777777",
"777777777777777777777777oooooooo::::::::::::****$$$$oooooooooooooooo$$$$****::::::::::::oooooooo777777777777777777777777",
"777777777777777777777777oooooooo::::::::::::****$$$$oooooooooooooooo$$$$****::::::::::::oooooooo777777777777777777777777",
"777777777777777777777777oooooooo::::::::::::****$$$$oooooooooooooooo$$$$****::::::::::::oooooooo777777777777777777777777",
"777777777777777777777777oooooooo::::::::::::****$$$$oooooooooooooooo$$$$****::::::::::::oooooooo777777777777777777777777",
"777777777777777777777777oooooooo::::::::::::****$$$$oooooooooooooooo$$$$****::::::::::::oooooooo777777777777777777777777",
"777777777777777777777777oooooooo::::::::::::****$$$$oooooooooooooooo$$$$****::::::::::::oooooooo777777777777777777777777",
"777777777777777777777777oooooooo::::::::::::****$$$$oooooooooooooooo$$$$****::::::::::::oooooooo777777777777777777777777",
"777777777777777777777777oooooooo::::::::::::****$$$$oooooooooooooooo$$$$****;;::::::::::oooooooo777777777777777777777777",
"777777777777777777777777oooooooo::::::::::::****$$$$oooooooooooooooo$$$$****;:::::::::::oooooooo777777777777777777777777",
"777777777777777777777777oooooooo::::::::::::****$$$$oooooooooooooooo$$$$****;:::::::::::oooooooo777777777777777777777777",
"777777777777777777777777oooooooo::::::::::::****$$$$oooooooooooooooo$$$$****::::::::::::oooooooo777777777777777777777777",
"777777777777777777777777oooooooo::::::::::::****$$$$oooooooooooooooo$$$$****::::::::::::oooooooo777777777777777777777777",
"777777777777777777777777oooooooo::::::::::::****$$$$oooooooooooooooo$$$$****:;::::::::::oooooooo777777777777777777777777",
"777777777777777777777777oooooooo::::::::::::****$$$$oooooooooooooooo$$$$****;;::::::::::oooooooo777777777777777777777777",
"777777777777777777777777oooooooo::::::::::::****$$$$oooooooooooooooo$$$$****::::::::::::oooooooo777777777777777777777777",
"777777777777777777777777oooooooo:::::::::;::**%*$$$$oooooooooooooooo$$$$****::::::;:::::ooXXoooo777777777777777777777777",
"777777777777777777777777oooooooo::::::::::::*%%*$$$$oooooooooooooooo$$$$****:::::;;:::::oXoooooo777777777777777777777777",
"777777777777777777777777oooooooo::;;::::::::****$$$$oooooooooooooooo$$$$****::::::::::::oooooooo777777777777777777777777",
"777777777777777777777777oooooooo::;::::;::::****$$$$oooooooooooooooo$$$$****::::::::::::oooooooo777777777777777777777777",
"777777777777777777777777oooooooo::;;:::;::::****$$$$oooooooooooooooo$$$$****::::::::::::oooooooo777777777777777777777777",
"777777777777777777777777oooooooo:::;:::;::::****$$$$oooXoooooooooooo$$$$****::::::::::::oooooooo777777777777777777777777",
"777777777777777777777777oooooooo:::::::::;::****$$$$oooXoooooooooooo$$$$****:::::::;::::oooooooo777777777777777777777777",
"777777777777777777777777oooooooo:::::::::;;;%***###$oooXoooooooooooo$$$$****:::::;;;::::oooooooo777777777777777777777777",
"777777777777777777777777oooooooo::::::::::::****$$$$oooooooooooooooo$$$$****::::::;:::::oooooooo777777777777777777777777",
"777777777777777777777777oooooooo::::::::::::****$$$$oooooooooooooooo$$$$****::::::;:::::oooooooo777777777777777777777777",
"777777777777777777777777oooooooo:;;:::::::::****$$$$oooooooooooooooo$$$$****::::::::::::oooooooo777777777777777777777777",
"777777777777777777777777oooooooo::;::;;;::::****$$$$oooooooooooooooo$$$$****::::::::;:::oooooooo777777777777777777777777",
"ooooooooooooooooooooooooooooooooooooooooooooooooooooooooooooooooooooooooooooXooooooo.ooooooooooooooooooooooooooooooooooo",
"oooooooooooooooooooooooooooooooooooooooooXoooooXoooooXooooooooooooooooooooooXXoooooo.oooXooooooooooooooooooooooooooooooo",
"ooooooooooooooooooooooooooooooooooooooooXXooooooooooXXooooooooooooooooooooooooooooooooooXooooooooooooooooooooooooooooooo",
"ooooooooooooooooooXXooooooooooooooooooooXooooooXooooooooooooooooooooooooooooooooooooooooXooooooooooooooooooooooooooooooo",
"111111111111111111111111oooooooo5555555555551111,,,,****oooooooo****,,,,1111555555555555oooooooo111111111111111111111111",
"111111111111111111111111oooooooo5555555555551111,,,,****oooooooo****,,,,1111555555555555oooooooo111111111111111111111111",
"111111111111111111111111oooooooo5555555555551111,,,,****oooooooo****,,,,1111555555555555oooooooo111111111111111111111111",
"111111111111111111111111oooooooo5555555555551111,,,,****oooooooo****,,,,1111555555555555oooooooo111111111111111111111111",
"111111111111111111111111ooXooooo5555555555551111,,,,***%oooooooo****,,,,1111555555555555XXoooooo111111111111111111111111",
"111111111111111111111111oXXooooo5555555555551111,,,,****oooooooo****,,,,1111555555555555XoooooXX111111111111111111111111",
"111111111111111111111111oooooooo5555555555551111,,,,****oooooooo**%*,,,,1111555555555555XoooooXo111111111111111111111111",
"111111111111111111111111oooooooo5555555555551111,,,,****oooooooo**%%,,,,1111555555555555oooooooo111111111111111111111111",
"111111111111111111111111oooooooo5555555555551111,,,,****ooooXXXo*%**,,,,1111555555555555ooXooooo111111111111111111111111",
"111111111111111111111111oooXoooo5555555555551111,,,,****ooooXooo****,,,,1111555555555555ooXooooo111111111111111111111111",
"111111111111111111111111oooXXXoo5555555555551111,,,,****oooooooo****,,,,1111555555555555oooooooo111111111111111111111111",
"111111111111111111111111ooXXoooo5555555555551111,,,,*%**oooooooo****,,,,1111555555555555ooooXooo111111111111111111111111",
"111111111111111111111111oooooooo5555555555551111,,,,%%**oooooooo****,,,,1111555555555555ooooXooo111111111111111111111111",
"111111111111111111111111oooooooo5555555555551111,,,,%%**oooooooo****,,,,1111555555555555oooXXXoo111111111111111111111111",
"111111111111111111111111ooXooooo5555555555551111,,,,****oooooXXo%***,,,,1111555555555555oooXoooo111111111111111111111111",
"111111111111111111111111ooXXXooo5555555555551111,,,,****oooooXoo%***,,,,1111555555555555oooooooo111111111111111111111111",
"111111111111111111111111oooooooo5555555555551111,,,,****....oooo****,,,,1111555555555555oooooooo111111111111111111111111",
"111111111111111111111111oooooooo5555555555551111,,,,****....oooo***%,,,,1111555555555555oooooooo111111111111111111111111",
"111111111111111111111111oooooooo5555555555551111,,,,****....oooo****,,,,1111555555555555oooooooo111111111111111111111111",
"111111111111111111111111oooooooo5555555555551111,,,,****... oooo****,,,,1111555555555555oooooooo111111111111111111111111",
"111111111111111111111111XXoooooo5555555555551111,,,,****oooooooo***%,,,,1111555555555555....oooo11111111111111111111111<",
"111111111111111111111111XoooooXX5555555555551111,,,,****oooooooo**%%,,,,1111555555555555....ooXX1111111111111111111111<<",
"111111111111111111111111XoooooXo5555555555551111,,,,****oooooooo****,,,,1111555555555555....ooXo111111111111111111111111",
"111111111111111111111111oooooooo5555555555551111,,,,****oooooooo****,,,,1111555555555555....oooo111111111111111111111111",
"111111111111111111111111....oooo5555555555551111,,,,%%**oooo....****,,,,1111555555555555....oooo111111111111111111111111",
"111111111111111111111111....oooo5555555555551111,,,,%%**Xooo....****,,,,1111555555555555....oooo111111111111111111111111",
"111111111111111111111111....oooo5555555555551111,,,,****oXoo....**%*,,,,1111555555555555....oooo111111111111111111111111",
"111111111111111111111111....oooo5555555555551111,,,,****Xooo....****,,,,1111555555555555....oooo111111111111111111111111",
"....oooooooooooooooooooooooooooooooooooooooo........oooooooooooo.....ooo....oooooooooooo............oooooooooooo....oooo",
"....ooooXooooooooooooXoooooXooooXooooooooooo........oooooooooooo....oooo....oooooooooooo............oooooooooooo....oooo",
"....ooooXoooooooooooXXooooXooooooXoooooooooo........oooooooooooo....oooo....oooooooooooo............oooooooooooo....oooo",
"....ooooXoooooooooooXoooooooooooXooooooooooo........oooooooooooo....oooo....oooooooooooo............oooooooooooo....oooo",
"777766677767777777777777oooo....;;;;;;;;;;;;%%**$$$$ ...oooo....oooo$$$$****::::::::::::XXXXoooo777766677767777767777777",
"777767777767777777776777oooo....;;;;;;;;;;;;%%**$$$$....oooo....oooo$#$$****::;;:;::::::XXoXoooo777767777767777766777776",
"777777777777777777666777oooo....;;;;;;;;;;;;****$$$$....oooo....oooo##$$****::;;:;:::::;oooooooo777777777777777776777776",
"777777777777677777767777oooo....;;;;;;;;;;;;****$$$$....oooo....oooo#$$$%***:::;::::::;;oooooooo777777777777677777777777",
"777777777777677777767777........;;;;;;;;;;;;**%*$$$$............oooo$$$$*%**;;;;::::;;;;........777777777777677777777777",
"777777777776667777777777........;;;;;;;;;;;;****$$$$............oooo$#$$*%%*;;;;::::;;;;........777777777776667777777776",
"777776677776777777777677........;;;;;;;;;;;;****$$$$............oooo#$$$****;;;;;:;:;;;;........777776677776777767777766",
"777776777777777777777677........;;;;;;;;;;;;****$$$$............oooo$$$$****;;;;;;;:;;;;........777776777777777767777767",
"776677777777777777777777........;;;;;;;;;;;;%%**$$$$oooo........oooo$$$$****;;;;;;;;;;::........776677777777777777766777",
"777777767777777776777776........;;;;;;;;;;;;%%**$$$$oooo........oooo$$$$****;;;;;;;;;;::........777777767777777777777777",
"777777667667777666777776........;;;;;;;;;;;;****$$$$oXXo........oo..$$$$****;;;;;;;;;:::........777777667667777677777777",
"777777676677777677777766........;;;;;;;;;;;;****$$$$oXoo........oo. $$$$***%;;;;;;;;;:::........777777676677777677777777",
"777777777777777777777777........;;;;;;;;;;;;**%*$$$$    ............$$$$****;;;;;;;;;;;;........777777777777777776676677",
"776777777777777777777777........;;;;;;;;;;;;****$$$$    ............$$$$****;;;;;;;;;;;;........776777777777777777667777",
"776677777777667777777777........;;;;;;;;;;;;****$$$$    ............$$$$**%%;;;;;;;;;;;;........776677777777667777777777",
"777677766777766777777777........;;;;;;;;;;;;****$$$$    ............$$$$**%%;;;;;;;;;;;;........777677766777766777777777",
"777777776667776777766777    ....;;;;;;;;;;;;%***$$$$....    ........$$$$****;;;;;;;;;;;;........777777776667776777766777",
"777677776777776777776677    ....;;;;;;;;;;;;****$$$$....    ........$$$$****;;;;;;;;;;;;........777677776777776777776677",
"777666777777777777777777    ....;;;;;;;;;;;;****$$$$....    ........$$$$****;;;;;;;;;;;;........777666777777777777777777",
"777767777777777777777777    ....;;;;;;;;;;;;****$$$$....    ........$$$$***%;;;;;;;;;;;;........777767777777777777777777",
"777767777777776677667667        ;;;;;;;;;;;;%%%%$$$$................$$$$****;;;;;;;;;;;;....    777767777777776677667667",
"777777777677777676677777        ;;;;;;;;;;;;%%%%$$$$................$$$$****;;;;;;;;;;;;....    777777777677777676677777",
"776777777677777677777777        ;;;;;;;;;;;;%%%%$$$$................$$$$****;;;;;;;;;;;;....    776777777677777677777777",
"776777777777777777777777        ;;;;;;;;;;;;%%%%$$$$................$$$$****;;;;;;;;;;;;....    776777777777777777777777"
};
