/* XPM */
static char *result[] = {
/* columns rows colors chars-per-pixel */
"120 120 33 1 ",
"  c #220B03",
". c #220C03",
"X c #220C04",
"o c #220D04",
"O c #220C05",
"+ c #220D05",
"@ c #230D05",
"# c #220E05",
"$ c #230E05",
"% c #220D06",
"& c #230D06",
"* c #220E06",
"= c #230E06",
"- c #3F1C11",
"; c #3F1C12",
": c #3F1D12",
"> c #4B220B",
", c #4B220C",
"< c #4B220D",
"1 c #5D2D03",
"2 c #5D2D04",
"3 c #5D2E04",
"4 c #5D2E05",
"5 c #814511",
"6 c #814512",
"7 c #A46322",
"8 c #A56322",
"9 c #AA752D",
"0 c #AB752D",
"q c #AA752E",
"w c #AB752E",
"e c #B08139",
"r c #B18139",
/* pixels */
"$%$%&$+#&@@+&@%#$=#&+*&*$&#&&=$#+$@*===@%$=$+%@%+%=%@&*#*=$=+#@&*=++%&@##$#&+&+@#@&@=###$+#+&+=%@&+&=%%+++$&%$%%@&=@*#%%",
"$+#@%+$#@==+**+&+++#+#**$+&+$@==%==*&=#$&#$&*%$##+%+@$+$*&%++*#%$@+%=$%%%&$*==&%%+%%&==&*&&*&==*==@#+#%&=$@+%%##+&&%*%%+",
"#=8888888888888888888888++++++++wwwwwwwwwwww88886666<<<<++++++++<<<<66668888wwwwwwwwwwww++++++++8888888888888888888888=*",
"&%8888888888888888888888++++++++wwwwwwwwwwww88886666<<<<++++++++<<<<66668888wwwwwwwwwwww++++++++8888888888888888888888&&",
"@@8888888888888888888888++++++++wwwwwwwwwwww88886666<<<<++++++++<<<<66668888wwwwwwwwwwww++++++++8888888888888888888888$*",
"&+8888888888888888888888++++++++wwwwwwwwwwww88886666<<<<++++++++<<<<66668888wwwwwwwwwwww++++++++8888888888888888888888%+",
"*=8888888888888888888888++++++++wwwwwwwwwwww88886666<<<<++++++++<<<<66668888wwwwwwwwwwww++++++++8888888888888888888888%%",
"@#8888888888888888888888++++++++wwwwwwwwwwww88886666<<<<++++++++<<<<66668888wwwwwwwwwwww++++++++8888888888888888888888*%",
"&%8888888888888888888888++++++++wwwwwwwwwwww88886666<<<<++++++++<<<<66668888wwwwwwwwwwww++++++++8888888888888888888888%*",
"#=8888888888888888888888++++++++wwwwwwwwwwww88886666<<<<++++++++<<<<66668888wwwwwwwwwwww++++++++8888888888888888888888$*",
"&@8888888888888888888888++++++++wwwwwwwwwwww88886666<<<<++++++++<<<<66668888wwwwwwwwwwww++++++++8888888888888888888888*&",
"=&8888888888888888888888++++++++wwwwwwwwwwww88886666<<<<++++++++<<<<66668888wwwwwwwwwwww++++++++8888888888888888888888=@",
"@@8888888888888888888888++++++++wwwwwwwwwwww88886666<<<<++++++++<<<<66668888wwwwwwwwwwww++++++++8888888888888888888888=*",
"@+8888888888888888888888++++++++wwwwwwwwwwww88886666<<<<++++++++<<<<66668888wwwwwwwwwwww++++++++8888888888888888888888++",
"#=8888888888888888888888++++++++wwwwwwwwwwww88886666<<<<++++++++<<<<66668888wwwwwwwwwwww++++++++8888888888888888888888*=",
"=*8888888888888888888888++++++++wwwwwwwwwwww88886666<<<<++++++++<<<<66668888wwwwwwwwwwww++++++++8888888888888888888888$@",
"&@8888888888888888888888++++++++wwwwwwwwwwww88886666<<<<++++++++<<<<66668888wwwwwwwwwwww++++++++8888888888888888888888=*",
"$&8888888888888888888888++++++++wwwwwwwwwwww88886666<<<<++++++++<<<<66668888wwwwwwwwwwww++++++++8888888888888888888888&@",
"$%8888888888888888888888++++++++wwwwwwwwwwww88886666<<<<++++++++<<<<66668888wwwwwwwwwwww++++++++8888888888888888888888$#",
"%#8888888888888888888888++++++++wwwwwwwwwwww88886666<<<<++++++++<<<<66668888wwwwwwwwwwww++++++++8888888888888888888888+$",
"%$8888888888888888888888++++++++wwwwwwwwwwww88886666<<<<++++++++<<<<66668888wwwwwwwwwwww++++++++8888888888888888888888=#",
"%%8888888888888888888888++++++++wwwwwwwwwwww88886666<<<<++++++++<<<<66668888wwwwwwwwwwww++++++++8888888888888888888888@#",
"%=8888888888888888888888++++++++wwwwwwwwwwww88886666<<<<++++++++<<<<66668888wwwwwwwwwwww++++++++8888888888888888888888#%",
"=$8888888888888888888888++++++++wwwwwwwwwwww88886666<<<<++++++++<<<<66668888wwwwwwwwwwww++++++++8888888888888888888888$*",
"=@8888888888888888888888++++++++wwwwwwwwwwww88886666<<<<oooo++++<<<<66668888wwwwwwwwwwwwoooo++++8888888888888888888888+&",
"$#8888888888888888888888++++++++wwwwwwwwwwww88886666<<<<oooo++++<<<<66668888wwwwwwwwwwwwoooo++++8888888888888888888888*%",
"#$8888888888888888888888++++++++wwwwwwwwwwww88886666<<<<oooo++++<<<<66668888wwwwwwwwwwwwoooo++++8888888888888888888888==",
"=*8888888888888888888888++++++++wwwwwwwwwwww88886666<<<<oooo++++<<<<66668888wwwwwwwwwwwwoooo++++8888888888888888888888*+",
"##oo++++++++oooo++++++++oooooooooooo++++++++oooo++++++++oooo++++++++++++++++++++oooo++++++++++++++++++++oooooooooooo++=#",
"+@oo++++++++oooo++++++++oooooooooooo++++++++oooo++++++++oooo++++++++++++++++++++oooo++++++++++++++++++++oooooooooooo++%$",
"$@oo++++++++oooo++++++++oooooooooooo++++++++oooo++++++++oooo++++++++++++++++++++oooo++++++++++++++++++++oooooooooooo+++#",
"+%oo++++++++oooo++++++++oooooooooooo++++++++oooo++++++++oooo++++++++++++++++++++oooo++++++++++++++++++++oooooooooooo++@$",
"==rrrrrrrrrrrrrrrrrrrrrroooo++++444444443333<<<<::::++++oooo++++oooo::::<<<<444444443333++++oooorrrrrrrrrrrrrrrrrrrrrr+%",
"@%rrrrrrrrrrrrrrrrrrrrrroooo++++444444443333<<<<::::++++oooo++++oooo::::<<<<444444443333++++oooorrrrrrrrrrrrrrrrrrrrrr&@",
"#$rrrrrrrrrrrrrrrrrrrrrroooo++++444444443333<<<<::::++++oooo++++oooo::::<<<<444444443333++++oooorrrrrrrrrrrrrrrrrrrrrr%&",
"*+rrrrrrrrrrrrrrrrrrrrrroooo++++444444443333<<<<::::++++oooo++++oooo::::<<<<444444443333++++oooorrrrrrrrrrrrrrrrrrrrrr$&",
"@#rrrrrrrrrrrrrrrrrrrrrroooooooo444444443333<<<<;;;;++++oooooooooooo::::<<<<333333334444++++++++rrrrrrrrrrrrrrrrrrrrrr*@",
"#+rrrrrrrrrrrrrrrrrrrrrroooooooo444444443333<<<<;;;;++++oooooooooooo::::<<<<333333334444++++++++rrrrrrrrrrrrrrrrrrrrrr=%",
"@+rrrrrrrrrrrrrrrrrrrrrroooooooo444444443333<<<<;;;;++++oooooooooooo::::<<<<333333334444++++++++rrrrrrrrrrrrrrrrrrrrrr%$",
"&%rrrrrrrrrrrrrrrrrrrrrroooooooo444444443333<<<<;;;;++++oooooooooooo::::<<<<333333334444++++++++rrrrrrrrrrrrrrrrrrrrrr@&",
"$&rrrrrrrrrrrrrrrrrrrrrroooooooo444433334444<<<<::::oooo++++++++++++::::<<<<333344444444oooooooorrrrrrrrrrrrrrrrrrrrrr@@",
"=@rrrrrrrrrrrrrrrrrrrrrroooooooo444433334444<<<<::::oooo++++++++++++::::<<<<333344444444oooooooorrrrrrrrrrrrrrrrrrrrrr+=",
"=+rrrrrrrrrrrrrrrrrrrrrroooooooo444433334444<<<<::::oooo++++++++++++::::<<<<333344444444oooooooorrrrrrrrrrrrrrrrrrrrrr%#",
"=&rrrrrrrrrrrrrrrrrrrrrroooooooo444433334444<<<<::::oooo++++++++++++::::<<<<333344444444oooooooorrrrrrrrrrrrrrrrrrrrrr%+",
"%&rrrrrrrrrrrrrrrrrrrrrrXXXXoooo333344443333<<<<;;;;OOOOoooooooo++++;;;;<<<<333333333333XXXXoooorrrrrrrrrrrrrrrrrrrrrr++",
"*+rrrrrrrrrrrrrrrrrrrrrrXXXXoooo333344443333<<<<;;;;OOOOoooooooo++++;;;;<<<<333333333333XXXXoooorrrrrrrrrrrrrrrrrrrrrr*@",
"&$rrrrrrrrrrrrrrrrrrrrrrXXXXoooo333344443333<<<<;;;;OOOOoooooooo++++;;;;<<<<333333333333XXXXoooorrrrrrrrrrrrrrrrrrrrrr=*",
"%&rrrrrrrrrrrrrrrrrrrrrrXXXXoooo333344443333<<<<;;;;OOOOoooooooo++++;;;;<<<<333333333333XXXXoooorrrrrrrrrrrrrrrrrrrrrr%#",
"+*rrrrrrrrrrrrrrrrrrrrrrXXXXXXXX333333333333,,,,;;;;oooooooo++++XXXX;;;;<<<<333333333333XXXXXXXXrrrrrrrrrrrrrrrrrrrrrr=@",
"**rrrrrrrrrrrrrrrrrrrrrrXXXXXXXX333333333333,,,,;;;;oooooooo++++XXXX;;;;<<<<333333333333XXXXXXXXrrrrrrrrrrrrrrrrrrrrrr&=",
"=@rrrrrrrrrrrrrrrrrrrrrrXXXXXXXX333333333333,,,,;;;;oooooooo++++XXXX;;;;<<<<333333333333XXXXXXXXrrrrrrrrrrrrrrrrrrrrrr##",
"$$rrrrrrrrrrrrrrrrrrrrrrXXXXXXXX333333333333,,,,;;;;oooooooo++++XXXX;;;;<<<<333333333333XXXXXXXXrrrrrrrrrrrrrrrrrrrrrr%*",
"=@rreeeerrrrrrrrrrrrrrrroooooooo333333333333,,,,;;;;XXXXoooooooooooo;;;;<<<<333333333333ooooXXXXrrrreeeerrrrrrrrrrrrrr=$",
"**rreeeerrrrrrrrrrrrrrrroooooooo333333333333,,,,;;;;XXXXoooooooooooo;;;;<<<<333333333333ooooXXXXrrrreeeerrrrrrrrrrrrrr#$",
"&#rreeeerrrrrrrrrrrrrrrroooooooo333333333333,,,,;;;;XXXXoooooooooooo;;;;<<<<333333333333ooooXXXXrrrreeeerrrrrrrrrrrrrr+*",
"$@rreeeerrrrrrrrrrrrrrrroooooooo333333333333,,,,;;;;XXXXoooooooooooo;;;;<<<<333333333333ooooXXXXrrrreeeerrrrrrrrrrrrrr+&",
"%%rreeeeeeeerrrrrrrrrrrrooooXXXX333333333333,,,,----oooooooooooooooo----,,,,333333333333oooooooorrrrrrrreeeerrrrrrrrrr=@",
"%&rreeeeeeeerrrrrrrrrrrrooooXXXX333333333333,,,,----oooooooooooooooo----,,,,333333333333oooooooorrrrrrrreeeerrrrrrrrrr=*",
"@$rreeeeeeeerrrrrrrrrrrrooooXXXX333333333333,,,,----oooooooooooooooo----,,,,333333333333oooooooorrrrrrrreeeerrrrrrrrrr=*",
"*=rreeeeeeeerrrrrrrrrrrrooooXXXX333333333333,,,,----oooooooooooooooo----,,,,333333333333oooooooorrrrrrrreeeerrrrrrrrrr*=",
"*@ooXXXXooooXXXXXXXXXXXXXXXXXXXXooooooooXXXXXXXXXXXXXXXXXXXXXXXXXXXXXXXXooooXXXXXXXXXXXXXXXXXXXXXXXXXXXXooooXXXXXXXXoo#$",
"@@ooXXXXooooXXXXXXXXXXXXXXXXXXXXooooooooXXXXXXXXXXXXXXXXXXXXXXXXXXXXXXXXooooXXXXXXXXXXXXXXXXXXXXXXXXXXXXooooXXXXXXXXoo@#",
"@*ooXXXXooooXXXXXXXXXXXXXXXXXXXXooooooooXXXXXXXXXXXXXXXXXXXXXXXXXXXXXXXXooooXXXXXXXXXXXXXXXXXXXXXXXXXXXXooooXXXXXXXXoo+&",
"=$ooXXXXooooXXXXXXXXXXXXXXXXXXXXooooooooXXXXXXXXXXXXXXXXXXXXXXXXXXXXXXXXooooXXXXXXXXXXXXXXXXXXXXXXXXXXXXooooXXXXXXXXoo*=",
"@*8888888888888888888888ooooXXXXwwwwwwwwwwww88885555,,,,XXXXoooo,,,,55558888wwwwwwwwwwwwXXXXXXXX8888888888888888888888&@",
"%$8888888888888888888888ooooXXXXwwwwwwwwwwww88885555,,,,XXXXoooo,,,,55558888wwwwwwwwwwwwXXXXXXXX8888888888888888888888$+",
"@+8888888888888888888888ooooXXXXwwwwwwwwwwww88885555,,,,XXXXoooo,,,,55558888wwwwwwwwwwwwXXXXXXXX8888888888888888888888&#",
"$%8888888888888888888888ooooXXXXwwwwwwwwwwww88885555,,,,XXXXoooo,,,,55558888wwwwwwwwwwwwXXXXXXXX8888888888888888888888*=",
"#@8888888888888888888888XXXXXXXXwwwwwwww000088885555,,,,XXXXoooo,,,,55558888wwww9999wwwwXXXXXXXX8888888888888888888888%&",
"#$8888888888888888888888XXXXXXXXwwwwwwww000088885555,,,,XXXXoooo,,,,55558888wwww9999wwwwXXXXXXXX8888888888888888888888%$",
"=*8888888888888888888888XXXXXXXXwwwwwwww000088885555,,,,XXXXoooo,,,,55558888wwww9999wwwwXXXXXXXX8888888888888888888888+@",
"+&8888888888888888888888XXXXXXXXwwwwwwww000088885555,,,,XXXXoooo,,,,55558888wwww9999wwwwXXXXXXXX8888888888888888888888%@",
"*$8888888888888888888888XXXXXXXXwwwwwwww000088885555,,,,XXXXXXXX,,,,55558888qqqq9999wwwwXXXXXXXX8888888888888888888888$#",
"*#8888888888888888888888XXXXXXXXwwwwwwww000088885555,,,,XXXXXXXX,,,,55558888qqqq9999wwwwXXXXXXXX8888888888888888888888&#",
"$*8888888888888888888888XXXXXXXXwwwwwwww000088885555,,,,XXXXXXXX,,,,55558888qqqq9999wwwwXXXXXXXX8888888888888888888888%#",
"@&8888888888888888888888XXXXXXXXwwwwwwww000088885555,,,,XXXXXXXX,,,,55558888qqqq9999wwwwXXXXXXXX8888888888888888888888%&",
"++8888888888888888888888XXXXXXXX0000qqqq000088885555,,,,XXXXXXXX,,,,555588889999wwwwwwwwXXXXXXXX8888888888888888888888*+",
"+@8888888888888888888888XXXXXXXX0000qqqq000088885555,,,,XXXXXXXX,,,,555588889999wwwwwwwwXXXXXXXX8888888888888888888888#$",
"$=8888888888888888888888XXXXXXXX0000qqqq000088885555,,,,XXXXXXXX,,,,555588889999wwwwwwwwXXXXXXXX8888888888888888888888#*",
"&+8888888888888888888888XXXXXXXX0000qqqq000088885555,,,,XXXXXXXX,,,,555588889999wwwwwwwwXXXXXXXX8888888888888888888888*@",
"%@8888888888888888888888XXXXXXXXwwwwwwww000088885555,,,,....XXXX,,,,5555888800009999qqqqXXXXXXXX8888888888888888888888&$",
"#$8888888888888888888888XXXXXXXXwwwwwwww000088885555,,,,....XXXX,,,,5555888800009999qqqqXXXXXXXX8888888888888888888888##",
"**8888888888888888888888XXXXXXXXwwwwwwww000088885555,,,,....XXXX,,,,5555888800009999qqqqXXXXXXXX8888888888888888888888=$",
"*@8888888888888888888888XXXXXXXXwwwwwwww000088885555,,,,....XXXX,,,,5555888800009999qqqqXXXXXXXX8888888888888888888888+#",
"#=8888888888888888888888XXXXXXXXqqqqqqqq999988885555,,,,XXXXXXXX,,,,55558888999999990000....XXXX8888888888888888888877%*",
"*=8888888888888888888888XXXXXXXXqqqqqqqq999988885555,,,,XXXXXXXX,,,,55558888999999990000....XXXX8888888888888888888877&=",
"=%8888888888888888888888XXXXXXXXqqqqqqqq999988885555,,,,XXXXXXXX,,,,55558888999999990000....XXXX8888888888888888888877%@",
"&*8888888888888888888888XXXXXXXXqqqqqqqq999988885555,,,,XXXXXXXX,,,,55558888999999990000....XXXX8888888888888888888877=#",
"*#8888888888888888888888....XXXX99990000999988885555,,,,XXXX....,,,,55558888999999999999....XXXX7777888888888888888888$=",
"&%8888888888888888888888....XXXX99990000999988885555,,,,XXXX....,,,,55558888999999999999....XXXX7777888888888888888888&@",
"*+8888888888888888888888....XXXX99990000999988885555,,,,XXXX....,,,,55558888999999999999....XXXX7777888888888888888888*@",
"%@8888888888888888888888....XXXX99990000999988885555,,,,XXXX....,,,,55558888999999999999....XXXX7777888888888888888888=&",
"&+..XXXXXXXXXXXXXXXXXXXXXXXXXXXXXXXXXXXXXXXX........XXXXXXXXXXXX....XXXX....XXXXXXXXXXXX............XXXXXXXXXXXX....XX*&",
"+$..XXXXXXXXXXXXXXXXXXXXXXXXXXXXXXXXXXXXXXXX........XXXXXXXXXXXX....XXXX....XXXXXXXXXXXX............XXXXXXXXXXXX....XX**",
"#@..XXXXXXXXXXXXXXXXXXXXXXXXXXXXXXXXXXXXXXXX........XXXXXXXXXXXX....XXXX....XXXXXXXXXXXX............XXXXXXXXXXXX....XX@$",
"=&..XXXXXXXXXXXXXXXXXXXXXXXXXXXXXXXXXXXXXXXX........XXXXXXXXXXXX....XXXX....XXXXXXXXXXXX............XXXXXXXXXXXX....XX$#",
"&&eeeeeeeeeeeeeeeeeeeeeeXXXX....111111111111,,,,----....XXXX....XXXX----,,,,222222222222XXXXXXXXeeeeeeeeeeeeeeeeeeeeee*%",
"&&eeeeeeeeeeeeeeeeeeeeeeXXXX....111111111111,,,,----....XXXX....XXXX----,,,,222222222222XXXXXXXXeeeeeeeeeeeeeeeeeeeeee$$",
"%*eeeeeeeeeeeeeeeeeeeeeeXXXX....111111111111,,,,----....XXXX....XXXX----,,,,222222222222XXXXXXXXeeeeeeeeeeeeeeeeeeeeee=%",
"+#eeeeeeeeeeeeeeeeeeeeeeXXXX....111111111111,,,,----....XXXX....XXXX----,,,,222222222222XXXXXXXXeeeeeeeeeeeeeeeeeeeeee$&",
"@+eeeeeeeeeeeeeeeeeeeeee........111111111111,,,,----............XXXX----,,,,111122221111........eeeeeeeeeeeeeeeeeeeeee#@",
"=&eeeeeeeeeeeeeeeeeeeeee........111111111111,,,,----............XXXX----,,,,111122221111........eeeeeeeeeeeeeeeeeeeeee%*",
"%*eeeeeeeeeeeeeeeeeeeeee........111111111111,,,,----............XXXX----,,,,111122221111........eeeeeeeeeeeeeeeeeeeeee$+",
"@=eeeeeeeeeeeeeeeeeeeeee........111111111111,,,,----............XXXX----,,,,111122221111........eeeeeeeeeeeeeeeeeeeeee#=",
"*%eeeeeeeeeeeeeeeeeeeeee........111111111111,,,,----XXXX........XXXX----,,,,111111112222........eeeeeeeeeeeeeeeeeeeeee%&",
"@=eeeeeeeeeeeeeeeeeeeeee........111111111111,,,,----XXXX........XXXX----,,,,111111112222........eeeeeeeeeeeeeeeeeeeeee$*",
"+*eeeeeeeeeeeeeeeeeeeeee........111111111111,,,,----XXXX........XXXX----,,,,111111112222........eeeeeeeeeeeeeeeeeeeeee%%",
"*+eeeeeeeeeeeeeeeeeeeeee........111111111111,,,,----XXXX........XXXX----,,,,111111112222........eeeeeeeeeeeeeeeeeeeeee*+",
"#=eeeeeeeeeeeeeeeeeeeeee........111111111111,,,,----    ............----,,,,111111111111........eeeeeeeeeeeeeeeeeeeeee**",
"%&eeeeeeeeeeeeeeeeeeeeee........111111111111,,,,----    ............----,,,,111111111111........eeeeeeeeeeeeeeeeeeeeee&&",
"+%eeeeeeeeeeeeeeeeeeeeee........111111111111,,,,----    ............----,,,,111111111111........eeeeeeeeeeeeeeeeeeeeee#@",
"$@eeeeeeeeeeeeeeeeeeeeee........111111111111,,,,----    ............----,,,,111111111111........eeeeeeeeeeeeeeeeeeeeee$%",
"+*eeeeeeeeeeeeeeeeeeeeee    ....111111111111,,,,----....    ........----,,,,111111111111........eeeeeeeeeeeeeeeeeeeeee$*",
"$=eeeeeeeeeeeeeeeeeeeeee    ....111111111111,,,,----....    ........----,,,,111111111111........eeeeeeeeeeeeeeeeeeeeee$=",
"%#eeeeeeeeeeeeeeeeeeeeee    ....111111111111,,,,----....    ........----,,,,111111111111........eeeeeeeeeeeeeeeeeeeeee#+",
"+&eeeeeeeeeeeeeeeeeeeeee    ....111111111111,,,,----....    ........----,,,,111111111111........eeeeeeeeeeeeeeeeeeeeee+&",
"@%eeeeeeeeeeeeeeeeeeeeee        111111111111>>>>----................----,,,,111111111111....    eeeeeeeeeeeeeeeeeeeeee##",
"&+eeeeeeeeeeeeeeeeeeeeee        111111111111>>>>----................----,,,,111111111111....    eeeeeeeeeeeeeeeeeeeeee#+",
"@%&=@$+@%#$==#++$=+#*#%@#@#&@=$++@@&&@%*&%$*#+$@+#%=*@==$+&%&@%+#+%#$#%==+*@&+%*=$=%&*$@$+%&=&*+$+@=*%%=#+==#+##=$@#@$$=",
"$#&&@&*=$%*$&=#&===@##$%%#$+#=+**=++$$#$+@#=%#&#+&@**$=&#%$#%%+&@$*#+**=@@@=**+#&#$$@*%@$%+#$$&$+@#%%@$+*$@*+%#@$%+++$*+"
};
