/* XPM */
static char *_9ad53d50f914539f6b218535a91a03e72RhlWuOyjFiZ2T9[] = {
/* columns rows colors chars-per-pixel */
"120 120 2 1 ",
"  c #301000",
". c #604010",
/* pixels */
"........................                        ........................                        ........................",
"........................                        ........................                        ........................",
"........................                        ........................                        ........................",
"........................                        ........................                        ........................",
"........................                        ........................                        ........................",
"........................                        ........................                        ........................",
"........................                        ........................                        ........................",
"........................                        ........................                        ........................",
"........................                        ........................                        ........................",
"........................                        ........................                        ........................",
"........................                        ........................                        ........................",
"........................                        ........................                        ........................",
"........................                        ........................                        ........................",
"........................                        ........................                        ........................",
"........................                        ........................                        ........................",
"........................                        ........................                        ........................",
"........................                        ........................                        ........................",
"........................                        ........................                        ........................",
"........................                        ........................                        ........................",
"........................                        ........................                        ........................",
"........................                        ........................                        ........................",
"........................                        ........................                        ........................",
"........................                        ........................                        ........................",
"........................                        ........................                        ........................",
"                        ........................                        ........................                        ",
"                        ........................                        ........................                        ",
"                        ........................                        ........................                        ",
"                        ........................                        ........................                        ",
"                        ........................                        ........................                        ",
"                        ........................                        ........................                        ",
"                        ........................                        ........................                        ",
"                        ........................                        ........................                        ",
"                        ........................                        ........................                        ",
"                        ........................                        ........................                        ",
"                        ........................                        ........................                        ",
"                        ........................                        ........................                        ",
"                        ........................                        ........................                        ",
"                        ........................                        ........................                        ",
"                        ........................                        ........................                        ",
"                        ........................                        ........................                        ",
"                        ........................                        ........................                        ",
"                        ........................                        ........................                        ",
"                        ........................                        ........................                        ",
"                        ........................                        ........................                        ",
"                        ........................                        ........................                        ",
"                        ........................                        ........................                        ",
"                        ........................                        ........................                        ",
"                        ........................                        ........................                        ",
"........................                        ........................                        ........................",
"........................                        ........................                        ........................",
"........................                        ........................                        ........................",
"........................                        ........................                        ........................",
"........................                        ........................                        ........................",
"........................                        ........................                        ........................",
"........................                        ........................                        ........................",
"........................                        ........................                        ........................",
"........................                        ........................                        ........................",
"........................                        ........................                        ........................",
"........................                        ........................                        ........................",
"........................                        ........................                        ........................",
"........................                        ........................                        ........................",
"........................                        ........................                        ........................",
"........................                        ........................                        ........................",
"........................                        ........................                        ........................",
"........................                        ........................                        ........................",
"........................                        ........................                        ........................",
"........................                        ........................                        ........................",
"........................                        ........................                        ........................",
"........................                        ........................                        ........................",
"........................                        ........................                        ........................",
"........................                        ........................                        ........................",
"........................                        ........................                        ........................",
"                        ........................                        ........................                        ",
"                        ........................                        ........................                        ",
"                        ........................                        ........................                        ",
"                        ........................                        ........................                        ",
"                        ........................                        ........................                        ",
"                        ........................                        ........................                        ",
"                        ........................                        ........................                        ",
"                        ........................                        ........................                        ",
"                        ........................                        ........................                        ",
"                        ........................                        ........................                        ",
"                        ........................                        ........................                        ",
"                        ........................                        ........................                        ",
"                        ........................                        ........................                        ",
"                        ........................                        ........................                        ",
"                        ........................                        ........................                        ",
"                        ........................                        ........................                        ",
"                        ........................                        ........................                        ",
"                        ........................                        ........................                        ",
"                        ........................                        ........................                        ",
"                        ........................                        ........................                        ",
"                        ........................                        ........................                        ",
"                        ........................                        ........................                        ",
"                        ........................                        ........................                        ",
"                        ........................                        ........................                        ",
"........................                        ........................                        ........................",
"........................                        ........................                        ........................",
"........................                        ........................                        ........................",
"........................                        ........................                        ........................",
"........................                        ........................                        ........................",
"........................                        ........................                        ........................",
"........................                        ........................                        ........................",
"........................                        ........................                        ........................",
"........................                        ........................                        ........................",
"........................                        ........................                        ........................",
"........................                        ........................                        ........................",
"........................                        ........................                        ........................",
"........................                        ........................                        ........................",
"........................                        ........................                        ........................",
"........................                        ........................                        ........................",
"........................                        ........................                        ........................",
"........................                        ........................                        ........................",
"........................                        ........................                        ........................",
"........................                        ........................                        ........................",
"........................                        ........................                        ........................",
"........................                        ........................                        ........................",
"........................                        ........................                        ........................",
"........................                        ........................                        ........................",
"........................                        ........................                        ........................"
};
