/* XPM */
static char *e5ebaaa6105249469f618018207beabfc7QhpKG2ijczMXBH[] = {
/* columns rows colors chars-per-pixel */
"120 120 12 1 ",
"  c #452D0B",
". c #452D0C",
"X c #5D3306",
"o c #5D3307",
"O c #5D3308",
"+ c #864B27",
"@ c #874B27",
"# c #874B28",
"$ c #9E5721",
"% c #9E5722",
"& c #9F5722",
"* c #B67533",
/* pixels */
"*****************######OoOOOOoOooOoOOooo######***********######......#####******######...........ooOOOOooooOo***********",
"*****************######oOooOoooOoOooOooo######***********######......#####******######...........oOoOoooooooo***********",
"*****************######oOoooOoOooooooooO######***********######......#####******######...........oOOOOooOOOOO***********",
"*****************######ooOOOOooOooOoOOoO######***********######......#####******######...........oOOoOOooOooo***********",
"*****************######OoooooOooooooOooo@#####***********######......#####******######...........oooooOoooOoo***********",
"*****************##@###oOOooooOooOOOoooo######***********######......#####******######...........ooOoOoooOOOo***********",
"***********************######OOOoo###@##***********######.................######...........OOoOooOOooOooOoooO***********",
"***********************######ooOoO######***********######.................#####@...........OoooOoOoooOooOooOO***********",
"***********************######OOOOo######***********######.................######...........OoooooOOoOoooOoOOO***********",
"***********************######ooOOO#####@***********#@####.................######...........oOoOooOOOooOoOOoOo***********",
"***********************######ooOoo#@####***********######.................####@#...........ooOOoOoooOooooooOo***********",
"***********######************#####************#@###............oooOoo.................ooooooooOoooooooOooooOo***********",
"***********#####@************#####************####@............ooOooo.................ooOoooOOoOoOooOoooOoOOo***********",
"***********#####@************#####************#####............OoooOO.................oOoOooOoooOoOoooOooOooo***********",
"***********@#####************#####************#####............oooooo.................OoOOooooOOOOooooooOoooo***********",
"***********######************#####************##@##............OooooO.................OOOOOoooOoOoOoOooOOoooO***********",
"***********######************#####************#####............oooooo.................OooOooooooooooooooOOooo***********",
"***********......#@#@##*****************######...........OoOoOOoOooooooooo......oOooOoOoOooOooooOooooOo......***********",
"***********......#@##@#*****************#@###@...........oooooooooooOooooo......OoooOOOOoooOOOoOoOooooo......***********",
"***********......#@####*****************######...........oooooOooooooooOoO......oOoooOooOoooOoooooooooo......***********",
"***********......######*****************#@####...........oooooOooOooOooooo......oooOOOoooOOooOooooOoooo......***********",
"***********......######*****************#@####...........OoooooOoooooOOooo......ooOoooOOooooooOoooooooO......***********",
"***********......@#####*****************###@##...........ooOoOooooooOOoOoo......oooooooOooooooooOoooooo......***********",
"***********............##@##@*****@#@###...........oooooooOooOOooooOOoooOoooooooOooOooOOoOooooOoo............***********",
"***********............###@##*****##@###...........OOooooooooOooooooooOoooOoooooooOOooOooOOoOooOo............***********",
"***********............@###@@*****###@@#...........ooooOoOoOooooooooooooooooOooooooooooOooooooooo............***********",
"***********............#@@##@*****######...........OooOOooooooOOoOOoOoooooooooooooOoOoooooooooooO............***********",
"***********............#@####*****######...........ooooooooOoooOooOooooooooooOoooooooooooooOooooo............***********",
"***********............###@#@*****#@@###...........oooOooooOooOOooooooooooooooooooooOoooooOooooOo............***********",
"***********Oooooo............####@............oooOooooooooooOoooooOooOOoooooOooOooooooooOoo............##@#@#***********",
"***********oooOoo............#####............ooOoooooooOOoOooooooooooOooooooOooooooooooooO............##@#@#***********",
"***********oOoooo............##@@#............oooooooooooooooOOoooooooooooooOoooooooooooOoo............#####@***********",
"***********oooooo............@@###............OoooooOoOoooooooooooooooOoooooooooooooooooOoo............@@@##@***********",
"***********oooooo............#@@@@............oooOooOOoooOOooOooooooooOooooooooOoOooooooooo............#@@#@@***********",
"***********oOooooOooooo.................ooOooooooOooOooooOoOooo......ooooooooooooooooo...........###@@#*****************",
"***********oooooooooooo.................oooooooooooooooooooOooo......ooooooooooooOoooo...........#@@#@#*****************",
"***********ooOOooOooooo.................ooooooooooooooooooooooo......ooooooooooooooooo...........@#####*****************",
"***********oooooooooooo.... ............ooooooooooooooooooooooo......ooooooooooooooooO. .........@@#@@#*****************",
"***********oooooooooooo............. . .ooooooooooooooooooooooo... ..ooooooooooooooooo ..........#@#@##*****************",
"***********oooooooooooo......... .......ooooooooooooooooooooooo... ..ooooooooooooooooo ..........@#@@##*****************",
"***********oooooooooooooooooo.....ooooooooooooooooooooooo... .... ........oooooo. .  ......#@#@@#***********************",
"***********oooooooooooooooooo . ..ooooooooooooooooooooooo. .....  ........oooooo.. ....... @#@@##***********************",
"***********oooooooooooooooooo.....ooooooooooooooooooooooo..... ......... .oooooo..  .......###@@#***********************",
"***********oooooooooooooooooo.... ooooooooooooooooooooooo.....  ..........oooooo.........  @@@@@#***********************",
"***********oooooooooooooooooo.....ooooooooooooooooooooooo ........... ....oooooo......... .##@#@#***********************",
"***********oooooooooooooooooo.   .ooooooooooooooooooooooo.. ..... .. . .. oooooo... .... ..@#@##@***********************",
"***********oooooooooooooooooooooooooooooooooooooooo   .........@@@@@#   .. ..... .. ..@##@@************@##@#@***********",
"***********oooooooooooooooooooooooooooooooooooooooo. .. .......@#@#@#  .  ......   . .@@@#@************@@@#@@***********",
"***********oooooooooooooooooooooooooooooooooooooooo.... ...... #@##@@...... ..... .  .@@@@@************@##@@@***********",
"***********oooooooooooooooooooooooooooooooooooooooo.. . ..... .#@@@@# . ..... ..... ..@#@@#************@@@#@@***********",
"***********oooooooooooooooooooooooooooooooooooooooo. . .... ...@@@@##   .   ..   .. ..@@@@@************##@@@@***********",
"***********....  ooooooooooooooooooooooooooooo . .. ..  .##@@#@******##@@@......@@@###***********@@@@#@oooooo***********",
"*********** .....ooooooooooooooooooooooooooooo...  . .. .@#@@@@******@@@@@ ... .@#@@@@***********@@@@@@oooooo***********",
"*********** .....ooooooooooooooooooooooooooooo.  .  . ...#@@@@@******@@@@@.  .  @@@@@@***********#@@@@@oooooo***********",
"***********  .   ooooooooooooooooooooooooooooo..  ...    @@@@@@******##@@@ ..  .@@@@@@***********@##@#@oooooo***********",
"***********      ooooooooooooooooooooooooooooo   .... . .@@@###******@@@@@.  ...@@@@@@***********@@#@#@oooooo***********",
"***********...   ooooooooooooooooooooooooooooo... .   .. @@@@@@******@@@@@......@@@@@@***********@@@@@@oooooo***********",
"***********..  . . .   ooooooooooooooooo  ....  . .@@@@@@*****************#@@@@@***********@@@#@@oooooooooooo***********",
"***********.. .. ..    ooooooooooooooooo    ... .. @@@@@#*****************@@@@@@***********@@@@@@oooooooooooo***********",
"***********.. .. ...   ooooooooooooooooo. .. . .  .@@@@@#*****************@@@@@@***********@@#@@#oooooooooooo***********",
"***********.. . . . .  ooooooooooooooooo   .   . . @@@#@@*****************@@@@@@***********@@@@@@oooooooooooo***********",
"***********.. .  .     ooooooooooooooooo  .. ...  .@@@@@@*****************@@@@@@***********@@@@@@oooooooooooo***********",
"***********     .    . ooooooooooooooooo .   . . . @@@@@@*****************@@@@@@***********@@@@@@oooooooooooo***********",
"***********@@@@@@. ... ...   ooooo.   .   .  .@@@@@************@@@@@@*****************@@@@@oooooooooooo$$$$$$***********",
"***********@@@@@@..   .  .   ooooo ..       ..@@@@@************@@@@@@*****************@@@@@oooooooooooo$$$$$$***********",
"***********@@@@@@   .   .    ooooo   ..   ..  @@@@@************@@@@@@*****************@@@@@oooooooooooo$$$$$$***********",
"***********@@@@@@     . .   .ooooo   .        @@@@@************@@@@@@*****************@@@@@oooooooooooo$$$$$$***********",
"***********@@@@@@  .  .      ooooo      . .. .@@@@@************@@@@@@*****************@@@@@oooooooooooo$$$$$$***********",
"***********@@@@@@ ..  .     .ooooo . .  ..  . @@@@@************@@@@@@*****************@@@@@oooooooooooo$$$$$$***********",
"*****************@@@@@@    .            @@@@@@***********@@@@@@oooooo@@@@@******@@@@@@ooooooooooo$$$$$$$$$$$$***********",
"*****************@@@@@@     ..  .  .  . @@@@@@***********@@@@@@oooooo@@@@@******@@@@@@ooooooooooo$$$$$$$$$$$$***********",
"*****************@@@@@@  . .       .    @@@@@@***********@@@@@@oooooo@@@@@******@@@@@@ooooooooooo$$$$$$$$$$$$***********",
"*****************@@@@@@ . .   .         @@@@@@***********@@@@@@oooooo@@@@@******@@@@@@ooooooooooo$$$$$$$$$$$$***********",
"*****************@@@@@@      .       .  @@@@@@***********@@@@@@oooooo@@@@@******@@@@@@ooooooooooo$$$$$$$$$$$$***********",
"***********************@@@@@@  .  @@@@@@***********@@@@@@ooooooooooooooooo@@@@@@ooooooooooo$$$$$$$$$$$$$$$$$$***********",
"***********************@@@@@@     @@@@@@***********@@@@@@ooooooooooooooooo@@@@@@ooooooooooo$$$$$$$$$$$$$$$$$$***********",
"***********************@@@@@@     @@@@@@***********@@@@@@ooooooooooooooooo@@@@@@ooooooooooo$$$$$$$$$$$$$$$$$$***********",
"***********************@@@@@@     @@@@@@***********@@@@@@ooooooooooooooooo@@@@@@ooooooooooo$$$$$$$$$$$$$$$$$$***********",
"***********************@@@@@@     @@@@@@***********@@@@@@ooooooooooooooooo@@@@@@ooooooooooo$$$$$$$$$$$$$$$$$$***********",
"***********************@@@@@@     @@@@@@***********@@@@@@ooooooooooooooooo@@@@@@ooooooooooo$$$$$$$$$$$$$$$$$$***********",
"***********@@@@@@************@@@@@************@@@@@oooooooooooo$$$$$$ooooooooooooooooo$$$$$$$$$$$$$$$$$$$$$$$***********",
"***********@@@@@@************@@@@@************@@@@@oooooooooooo$$$$$$ooooooooooooooooo$$$$$$$$$$$$$$$$$$$$$$$***********",
"***********@@@@@@************@@@@@************@@@@@oooooooooooo$$$$$$ooooooooooooooooo$$$$$$$$$$$$$$$$$$$$$$$***********",
"***********@@@@@@************@@@@@************@@@@@oooooooooooo$$$$$$ooooooooooooooooo$$$$$$$$$$$$$$$$$$$$$$$***********",
"***********@@@@@@************@@@@@************@@@@@oooooooooooo$$$$$$ooooooooooooooooo$$$$$$$$$$$$$$$$$$$$$$$***********",
"***********@@@@@@************@@@@@************@@@@@oooooooooooo$$$$$$ooooooooooooooooo$$$$$$$$$$$$$$$$$$$$$$$***********",
"***********oooooo@@@@@@*****************@@@@@@ooooooooooo$$$$$$$$$$$$$$$$$oooooo$$$$$$$$$$$$$$$$$$$$$$$oooooo***********",
"***********oooooo@@@@@@*****************@@@@@@ooooooooooo$$$$$$$$$$$$$$$$$oooooo$$$$$$$$$$$$$$$$$$$$$$$oooooo***********",
"***********oooooo@@@@@@*****************@@@@@@ooooooooooo$$$$$$$$$$$$$$$$$oooooo$$$$$$$$$$$$$$$$$$$$$$$oooooo***********",
"***********oooooo@@@@@@*****************@@@@@@ooooooooooo$$$$$$$$$$$$$$$$$oooooo$$$$$$$$$$$$$$$$$$$$$$$oooooo***********",
"***********oooooo@@@@@@*****************@@@@@@ooooooooooo$$$$$$$$$$$$$$$$$oooooo$$$$$$$$$$$$$$$$$$$$$$$oooooo***********",
"***********oooooooooooo@@@@@@*****@@@@@@ooooooooooo$$$$$$$$$$$$$$$$$$$$$$$$$$$$$$$$$$$$$$$$$$$$$$oooooooooooo***********",
"***********oooooooooooo@@@@@@*****@@@@@@ooooooooooo$$$$$$$$$$$$$$$$$$$$$$$$$$$$$$$$$$$$$$$$$$$$$$oooooooooooo***********",
"***********oooooooooooo@@@@@@*****@@@@@@ooooooooooo$$$$$$$$$$$$$$$$$$$$$$$$$$$$$$$$$$$$$$$$$$$$$$oooooooooooo***********",
"***********oooooooooooo@@@@@@*****@@@@@@ooooooooooo$$$$$$$$$$$$$$$$$$$$$$$$$$$$$$$$$$$$$$$$$$$$$$oooooooooooo***********",
"***********oooooooooooo@@@@@@*****@@@@@@ooooooooooo$$$$$$$$$$$$$$$$$$$$$$$$$$$$$$$$$$$$$$$$$$$$$$oooooooooooo***********",
"***********oooooooooooo@@@@@@*****@@@@@@ooooooooooo$$$$$$$$$$$$$$$$$$$$$$$$$$$$$$$$$$$$$$$$$$$$$$oooooooooooo***********",
"***********$$$$$$oooooooooooo@@@@@oooooooooooo$$$$$$$$$$$$$$$$$$$$$$$$$$$$$$$$$$$$$$$$$$$$$oooooooooooo@@@@@@***********",
"***********$$$$$$oooooooooooo@@@@@oooooooooooo$$$$$$$$$$$$$$$$$$$$$$$$$$$$$$$$$$$$$$$$$$$$$oooooooooooo@@@@@@***********",
"***********$$$$$$oooooooooooo@@@@@oooooooooooo$$$$$$$$$$$$$$$$$$$$$$$$$$$$$$$$$$$$$$$$$$$$$oooooooooooo@@@@@@***********",
"***********$$$$$$oooooooooooo@@@@@oooooooooooo$$$$$$$$$$$$$$$$$$$$$$$$$$$$$$$$$$$$$$$$$$$$$oooooooooooo@@@@@@***********",
"***********$$$$$$oooooooooooo@@@@@oooooooooooo$$$$$$$$$$$$$$$$$$$$$$$$$$$$$$$$$$$$$$$$$$$$$oooooooooooo@@@@@@***********",
"***********$$$$$$oooooooooooo@@@@@oooooooooooo$$$$$$$$$$$$$$$$$$$$$$$$$$$$$$$$$$$$$$$$$$$$$oooooooooooo@@@@@@***********",
"***********$$$$$$$$$$$$ooooooooooooooooo$$$$$$$$$$$$$$$$$$$$$$$oooooo$$$$$$$$$$$$$$$$$ooooooooooo@@@@@@*****************",
"***********$$$$$$$$$$$$ooooooooooooooooo$$$$$$$$$$$$$$$$$$$$$$$oooooo$$$$$$$$$$$$$$$$$ooooooooooo@@@@@@*****************",
"***********$$$$$$$$$$$$ooooooooooooooooo$$$$$$$$$$$$$$$$$$$$$$$oooooo$$$$$$$$$$$$$$$$$ooooooooooo@@@@@@*****************",
"***********$$$$$$$$$$$$ooooooooooooooooo$$$$$$$$$$$$$$$$$$$$$$$oooooo$$$$$$$$$$$$$$$$$ooooooooooo@@@@@@*****************",
"***********$$$$$$$$$$$$ooooooooooooooooo$$$$$$$$$$$$$$$$$$$$$$$oooooo$$$$$$$$$$$$$$$$$ooooooooooo@@@@@@*****************",
"***********$$$$$$$$$$$$ooooooooooooooooo$$$$$$$$$$$$$$$$$$$$$$$oooooo$$$$$$$$$$$$$$$$$ooooooooooo@@@@@@*****************",
"***********$$$$$$$$$$$$$$$$$$ooooo$$$$$$$$$$$$$$$$$$$$$$$ooooooooooooooooo$$$$$$ooooooooooo@@@@@@***********************",
"***********$$$$$$$$$$$$$$$$$$ooooo$$$$$$$$$$$$$$$$$$$$$$$ooooooooooooooooo$$$$$$ooooooooooo@@@@@@***********************",
"***********$$$$$$$$$$$$$$$$$$ooooo$$$$$$$$$$$$$$$$$$$$$$$ooooooooooooooooo$$$$$$ooooooooooo@@@@@@***********************",
"***********$$$$$$$$$$$$$$$$$$ooooo$$$$$$$$$$$$$$$$$$$$$$$ooooooooooooooooo$$$$$$ooooooooooo@@@@@@***********************",
"***********$$$$$$$$$$$$$$$$$$ooooo$$$$$$$$$$$$$$$$$$$$$$$ooooooooooooooooo$$$$$$ooooooooooo@@@@@@***********************",
"***********$$$$$$$$$$$$$$$$$$$$$$$$$$$$$$$$$$$$$$$$oooooooooooo@@@@@@ooooooooooooooooo@@@@@************@@@@@@***********",
"***********$$$$$$$$$$$$$$$$$$$$$$$$$$$$$$$$$$$$$$$$oooooooooooo@@@@@@ooooooooooooooooo@@@@@************@@@@@@***********",
"***********$$$$$$$$$$$$$$$$$$$$$$$$$$$$$$$$$$$$$$$$oooooooooooo@@@@@@ooooooooooooooooo@@@@@************@@@@@@***********",
"***********$$$$$$$$$$$$$$$$$$$$$$$$$$$$$$$$$$$$$$$$oooooooooooo@@@@@@ooooooooooooooooo@@@@@************@@@@@@***********",
"***********$$$$$$$$$$$$$$$$$$$$$$$$$$$$$$$$$$$$$$$$oooooooooooo@@@@@@ooooooooooooooooo@@@@@************@@@@@@***********",
"***********$$$$$$$$$$$$$$$$$$$$$$$$$$$$$$$$$$$$$$$$oooooooooooo@@@@@@ooooooooooooooooo@@@@@************@@@@@@***********"
};
