/* XPM */
static char *_b97be7f1aef46fef0e2eff7fa82771bdgIat6eMXVfJd9F4[] = {
/* columns rows colors chars-per-pixel */
"120 120 2 1 ",
"  c #301000",
". c #604010",
/* pixels */
"..............................                              ..............................                              ",
"..............................                              ..............................                              ",
"..............................                              ..............................                              ",
"..............................                              ..............................                              ",
"..............................                              ..............................                              ",
"..............................                              ..............................                              ",
"..............................                              ..............................                              ",
"..............................                              ..............................                              ",
"..............................                              ..............................                              ",
"..............................                              ..............................                              ",
"..............................                              ..............................                              ",
"..............................                              ..............................                              ",
"..............................                              ..............................                              ",
"..............................                              ..............................                              ",
"..............................                              ..............................                              ",
"..............................                              ..............................                              ",
"..............................                              ..............................                              ",
"..............................                              ..............................                              ",
"..............................                              ..............................                              ",
"..............................                              ..............................                              ",
"..............................                              ..............................                              ",
"..............................                              ..............................                              ",
"..............................                              ..............................                              ",
"..............................                              ..............................                              ",
"..............................                              ..............................                              ",
"..............................                              ..............................                              ",
"..............................                              ..............................                              ",
"..............................                              ..............................                              ",
"..............................                              ..............................                              ",
"..............................                              ..............................                              ",
"                              ..............................                              ..............................",
"                              ..............................                              ..............................",
"                              ..............................                              ..............................",
"                              ..............................                              ..............................",
"                              ..............................                              ..............................",
"                              ..............................                              ..............................",
"                              ..............................                              ..............................",
"                              ..............................                              ..............................",
"                              ..............................                              ..............................",
"                              ..............................                              ..............................",
"                              ..............................                              ..............................",
"                              ..............................                              ..............................",
"                              ..............................                              ..............................",
"                              ..............................                              ..............................",
"                              ..............................                              ..............................",
"                              ..............................                              ..............................",
"                              ..............................                              ..............................",
"                              ..............................                              ..............................",
"                              ..............................                              ..............................",
"                              ..............................                              ..............................",
"                              ..............................                              ..............................",
"                              ..............................                              ..............................",
"                              ..............................                              ..............................",
"                              ..............................                              ..............................",
"                              ..............................                              ..............................",
"                              ..............................                              ..............................",
"                              ..............................                              ..............................",
"                              ..............................                              ..............................",
"                              ..............................                              ..............................",
"                              ..............................                              ..............................",
"..............................                              ..............................                              ",
"..............................                              ..............................                              ",
"..............................                              ..............................                              ",
"..............................                              ..............................                              ",
"..............................                              ..............................                              ",
"..............................                              ..............................                              ",
"..............................                              ..............................                              ",
"..............................                              ..............................                              ",
"..............................                              ..............................                              ",
"..............................                              ..............................                              ",
"..............................                              ..............................                              ",
"..............................                              ..............................                              ",
"..............................                              ..............................                              ",
"..............................                              ..............................                              ",
"..............................                              ..............................                              ",
"..............................                              ..............................                              ",
"..............................                              ..............................                              ",
"..............................                              ..............................                              ",
"..............................                              ..............................                              ",
"..............................                              ..............................                              ",
"..............................                              ..............................                              ",
"..............................                              ..............................                              ",
"..............................                              ..............................                              ",
"..............................                              ..............................                              ",
"..............................                              ..............................                              ",
"..............................                              ..............................                              ",
"..............................                              ..............................                              ",
"..............................                              ..............................                              ",
"..............................                              ..............................                              ",
"..............................                              ..............................                              ",
"                              ..............................                              ..............................",
"                              ..............................                              ..............................",
"                              ..............................                              ..............................",
"                              ..............................                              ..............................",
"                              ..............................                              ..............................",
"                              ..............................                              ..............................",
"                              ..............................                              ..............................",
"                              ..............................                              ..............................",
"                              ..............................                              ..............................",
"                              ..............................                              ..............................",
"                              ..............................                              ..............................",
"                              ..............................                              ..............................",
"                              ..............................                              ..............................",
"                              ..............................                              ..............................",
"                              ..............................                              ..............................",
"                              ..............................                              ..............................",
"                              ..............................                              ..............................",
"                              ..............................                              ..............................",
"                              ..............................                              ..............................",
"                              ..............................                              ..............................",
"                              ..............................                              ..............................",
"                              ..............................                              ..............................",
"                              ..............................                              ..............................",
"                              ..............................                              ..............................",
"                              ..............................                              ..............................",
"                              ..............................                              ..............................",
"                              ..............................                              ..............................",
"                              ..............................                              ..............................",
"                              ..............................                              ..............................",
"                              ..............................                              .............................."
};
