/* XPM */
static char *_d34bfab1ce6492bb09fa94f50f87ab8rYR2IW6On3AHniD1[] = {
/* columns rows colors chars-per-pixel */
"120 120 75 1 ",
"  c #220C04",
". c #280F05",
"X c #271006",
"o c #2B1106",
"O c #2E1807",
"+ c #291108",
"@ c #2E1908",
"# c #321504",
"$ c #3E1D06",
"% c #301B08",
"& c #3B1A0F",
"* c #3E1C11",
"= c #401E06",
"- c #451F0B",
"; c #411D10",
": c #422107",
"> c #4F2504",
", c #46210B",
"< c #4B220C",
"1 c #4B290C",
"2 c #502704",
"3 c #562A04",
"4 c #5D2D04",
"5 c #51270C",
"6 c #532C0D",
"7 c #582B0E",
"8 c #4E310F",
"9 c #4C2F10",
"0 c #4E3312",
"q c #523513",
"w c #563B17",
"e c #583C17",
"r c #573C18",
"t c #583C18",
"y c #743D0F",
"u c #783F0F",
"i c #713B10",
"p c #713C10",
"a c #773F10",
"s c #783F10",
"d c #7A4110",
"f c #7E4513",
"g c #814511",
"h c #874B14",
"j c #884B15",
"k c #894C16",
"l c #8B521B",
"z c #8D541C",
"x c #8E541C",
"c c #93571C",
"v c #94571D",
"b c #975A1E",
"n c #985A1E",
"m c #9A5C1F",
"M c #9A5E21",
"N c #9F5E20",
"B c #A05F20",
"V c #916325",
"C c #936426",
"Z c #9C6827",
"A c #966D2F",
"S c #9E6928",
"D c #9E6C2A",
"F c #996F30",
"G c #A56322",
"H c #A66624",
"J c #A06D2A",
"K c #A9722B",
"L c #AA722C",
"P c #AA752E",
"I c #AB752E",
"U c #A17533",
"Y c #A47734",
"T c #A47835",
"R c #B08139",
/* pixels */
"RRRRRRRRRRRRRRRRRRRRRRRTe  1bGGGGGGGGGGGGGGGGGGGGGGGGGGm6  0URRRRRRRRRRRRRRRRRRRRRRRRRRTt  1bGGGGGGGGGGGGGGGGGGGGGGGGGGG",
"RRRRRRRRRRRRRRRRRRRRRRRTr  1bGGGGGGGGGGGGGGGGGGGGGGGGGGm6  0URRRRRRRRRRRRRRRRRRRRRRRRRRTt  1bGGGGGGGGGGGGGGGGGGGGGGGGGGG",
"RRRRRRRRRRRRRRRRRRRRRRRTr  1bGGGGGGGGGGGGGGGGGGGGGGGGGGm6  0URRRRRRRRRRRRRRRRRRRRRRRRRRTe  1bGGGGGGGGGGGGGGGGGGGGGGGGGGG",
"RRRRRRRRRRRRRRRRRRRRRRRTr  1bGGGGGGGGGGGGGGGGGGGGGGGGGGm6  0URRRRRRRRRRRRRRRRRRRRRRRRRRTt  1bGGGGGGGGGGGGGGGGGGGGGGGGGGG",
"RRRRRRRRRRRRRRRRRRRRRRRTr  1bGGGGGGGGGGGGGGGGGGGGGGGGGGm6  0URRRRRRRRRRRRRRRRRRRRRRRRRRTt  1bGGGGGGGGGGGGGGGGGGGGGGGGGGG",
"RRRRRRRRRRRRRRRRRRRRRRRTr  1bGGGGGGGGGGGGGGGGGGGGGGGGGGm6  0URRRRRRRRRRRRRRRRRRRRRRRRRRTt  1bGGGGGGGGGGGGGGGGGGGGGGGGGGG",
"RRRRRRRRRRRRRRRRRRRRRRRTr  1bGGGGGGGGGGGGGGGGGGGGGGGGGGm6  0URRRRRRRRRRRRRRRRRRRRRRRRRRTt  1bGGGGGGGGGGGGGGGGGGGGGGGGGGG",
"RRRRRRRRRRRRRRRRRRRRRRRTr  1bGGGGGGGGGGGGGGGGGGGGGGGGGGm6  0URRRRRRRRRRRRRRRRRRRRRRRRRRTr  1bGGGGGGGGGGGGGGGGGGGGGGGGGGG",
"RRRRRRRRRRRRRRRRRRRRRRRTr  1bGGGGGGGGGGGGGGGGGGGGGGGGGGm6  0URRRRRRRRRRRRRRRRRRRRRRRRRRTt  1bGGGGGGGGGGGGGGGGGGGGGGGGGGG",
"RRRRRRRRRRRRRRRRRRRRRRRTw  1bGGGGGGGGGGGGGGGGGGGGGGGGGGm6  0URRRRRRRRRRRRRRRRRRRRRRRRRRTt  1bGGGGGGGGGGGGGGGGGGGGGGGGGGG",
"RRRRRRRRRRRRRRRRRRRRRRRTw  1bGGGGGGGGGGGGGGGGGGGGGGGGGGm6  0URRRRRRRRRRRRRRRRRRRRRRRRRRTr  1bGGGGGGGGGGGGGGGGGGGGGGGGGGG",
"RRRRRRRRRRRRRRRRRRRRRRRTw  1bGGGGGGGGGGGGGGGGGGGGGGGGGGm6  0URRRRRRRRRRRRRRRRRRRRRRRRRRTr  1bGGGGGGGGGGGGGGGGGGGGGGGGGGG",
"RRRRRRRRRRRRRRRRRRRRRRRTw  1bGGGGGGGGGGGGGGGGGGGGGGGGGGm6  0URRRRRRRRRRRRRRRRRRRRRRRRRRTw  1bGGGGGGGGGGGGGGGGGGGGGGGGGGG",
"RRRRRRRRRRRRRRRRRRRRRRRTw  1bGGGGGGGGGGGGGGGGGGGGGGGGGGm6  0URRRRRRRRRRRRRRRRRRRRRRRRRRTw  1bGGGGGGGGGGGGGGGGGGGGGGGGGGG",
"RRRRRRRRRRRRRRRRRRRRRRRTw  1bGGGGGGGGGGGGGGGGGGGGGGGGGGm6  0URRRRRRRRRRRRRRRRRRRRRRRRRRTw  1bGGGGGGGGGGGGGGGGGGGGGGGGGGG",
"RRRRRRRRRRRRRRRRRRRRRRRTw  1bGGGGGGGGGGGGGGGGGGGGGGGGGGm6  0URRRRRRRRRRRRRRRRRRRRRRRRRRTw  1bGGGGGGGGGGGGGGGGGGGGGGGGGGG",
"RRRRRRRRRRRRRRRRRRRRRRRTw  1bGGGGGGGGGGGGGGGGGGGGGGGGGGm6  0URRRRRRRRRRRRRRRRRRRRRRRRRRTw  1bGGGGGGGGGGGGGGGGGGGGGGGGGGG",
"RRRRRRRRRRRRRRRRRRRRRRRTw  1bGGGGGGGGGGGGGGGGGGGGGGGGGGm6  qURRRRRRRRRRRRRRRRRRRRRRRRRRTw  1bGGGGGGGGGGGGGGGGGGGGGGGGGGG",
"RRRRRRRRRRRRRRRRRRRRRRRTw  1bGGGGGGGGGGGGGGGGGGGGGGGGGGm6  qURRRRRRRRRRRRRRRRRRRRRRRRRRTw  1bGGGGGGGGGGGGGGGGGGGGGGGGGGG",
"RRRRRRRRRRRRRRRRRRRRRRRTw  1bGGGGGGGGGGGGGGGGGGGGGGGGGGm6  qURRRRRRRRRRRRRRRRRRRRRRRRRRTw  1bGGGGGGGGGGGGGGGGGGGGGGGGGGG",
"RRRRRRRRRRRRRRRRRRRRRRRTw  1bGGGGGGGGGGGGGGGGGGGGGGGGGGm6  qURRRRRRRRRRRRRRRRRRRRRRRRRRTw  1bGGGGGGGGGGGGGGGGGGGGGGGGGGG",
"RRRRRRRRRRRRRRRRRRRRRRRTw  1bGGGGGGGGGGGGGGGGGGGGGGGGGGm6  qURRRRRRRRRRRRRRRRRRRRRRRRRRTw  1bGGGGGGGGGGGGGGGGGGGGGGGGGGG",
"RRRRRRRRRRRRRRRRRRRRRRRTw  1bGGGGGGGGGGGGGGGGGGGGGGGGGGm6  qURRRRRRRRRRRRRRRRRRRRRRRRRRTw  1bGGGGGGGGGGGGGGGGGGGGGGGGGGG",
"UUUUUUUUUUUUUUUUUUUUUUUA0  ,lbbnnnnnnnnnnnnnnnnnnnnnnnnx1  0AYYYYYYYYYYYYYYYYYYYYYYYYYYFq  ,xmmmmmmmmmmmmmmmmmmmmmmmmmmm",
"0000000000000000000000q0@  o,111111111111111111111111111O  O0wwwwwwwwwwwwwwwwwwwwwwwwwwq%  O1666666666666666666666666666",
"                                                                                                                        ",
"                                                                                                                        ",
"                                                                                                                        ",
"                                                                                                                        ",
"                                                                                                                        ",
"                                                                                                                        ",
"########################.  O8qqqqqqqqqqqqqqqqqqqqqqqqqq1O  .O##########################O.  O1000000000000000000000000099",
"333333333333333333333332#  1VDDDDDDDDDDDDDDDDDDDDDDDDDDC0  O2333333333333333333333333332#  1VSSSSSSSSSSSSSSSSSSSSSSSSSSS",
"444444444444444444444443#  0SPPPPPPPPPPPPPPPPPPPPPPPPPPDq  #3444444444444444444444444443#  0SPPPPPPPPPPPPPPPPPPPPPPPPPPP",
"444444444444444444444443#  0SPPPPPPPPPPPPPPPPPPPPPPPPPPDq  #3444444444444444444444444443#  0SPPPPPPPPPPPPPPPPPPPPPPPPPPP",
"444444444444444444444443#  0SPPPPPPPPPPPPPPPPPPPPPPPPPPDq  #3444444444444444444444444443#  0SPPPPPPPPPPPPPPPPPPPPPPPPPPP",
"444444444444444444444443#  0SPPPPPPPPPPPPPPPPPPPPPPPPPPDq  #3444444444444444444444444443#  0SPPPPPPPPPPPPPPPPPPPPPPPPPPP",
"444444444444444444444443#  0SPPPPPPPPPPPPPPPPPPPPPPPPPPDq  #3444444444444444444444444443#  0SPPPPPPPPPPPPPPPPPPPPPPPPPPP",
"444444444444444444444443#  0SPPPPPPPPPPPPPPPPPPPPPPPPPPDq  #3444444444444444444444444443#  0SPPPPPPPPPPPPPPPPPPPPPPPPPPP",
"444444444444444444444443#  0SPPPPPPPPPPPPPPPPPPPPPPPPPPDq  #3444444444444444444444444443#  0SPPPPPPPPPPPPPPPPPPPPPPPPPPP",
"444444444444444444444443#  0SPPPPPPPPPPPPPPPPPPPPPPPPPPDq  #3444444444444444444444444443#  0SPPPPPPPPPPPPPPPPPPPPPPPPPPP",
"444444444444444444444443#  0SPPPPPPPPPPPPPPPPPPPPPPPPPPDq  #3444444444444444444444444443#  0SPPPPPPPPPPPPPPPPPPPPPPPPPPP",
"444444444444444444444443#  0SPPPPPPPPPPPPPPPPPPPPPPPPPPDq  #3444444444444444444444444443#  0SPPPPPPPPPPPPPPPPPPPPPPPPPPP",
"444444444444444444444443#  8ZKKKKKKKKKKKKKKKKKKKKKKKLLLSq  #3444444444444444444444444443#  0SLLLLLLLLLLLLLLLLLLLLLLLLLLL",
"<<<<<<<<<<<<<<<<<<<<<<<,o  1MHHHHHHHHHHHHHHHHHHHHHHHHHHM6  o,<<<<<<<<<<<<<<<<<<<<<<<<<5,o  1MHHHHHHHHHHHHHHHHHHHHHHHHHHH",
",,,,<<<<<<<<<<<<<<<<<<<-o  1nGGGGGGGGGGGGGGGGGGGGGGGGGGn1  o-<<<<<<<<<<<<<<<<<<<<<<<<<<,o  1nGGGGGGGGGGGGGGGGGGGGGGGGGGG",
",,,,<<<<<<<<<<<<<<<<<<<-o  1nGGGGGGGGGGGGGGGGGGGGGGGGGGn1  o-<<<<<<<<<<<<<<<<<<<<<<<<<<-o  1nGGGGGGGGGGGGGGGGGGGGGGGGGGG",
"<<<<<<<<<<<<<<<<<<<<<<<-o  1cNNNNNNNNNNNNNNNNBBBBBBBBBBv1  o-<<<<<<<<<<<<<<<<<<<<<<<<<<-o  1vBBBBBBBBBBBBBBBBBBBBBBBBBBB",
";;;-;;;;;;;;;;;;;;;;;;;&o  :fhhhhhhhhhjjjjjjjjjjjjjjjjjf:  o&;;;;;;;;;;;;;;;;;;;;;;;;;;*o  :fkkkkkkkkkkkkkkkkkkkkkkkkkkk",
";;;;*******************&o  $uggggggggggggggggggggggggggu=  .&***************************+  $aggggggggggggggggggggggggggg",
"**;;*******************&o  $uggggggggggggggggggggggggggu=  .&***************************+  $aggggggggggggggggggggggggggg",
"&&&&&&&&&&&&&&&&&&&&&&&&.  $yddddddddddddddddddddddddddy$  .&&&&***********************&o  $pddddddddddddddddddddddddddd",
"........................   O5777777777777777777777777775#   Xoooooooooooo++oooooo++++++o   #5777777777777777777777777777",
"                           o-<<<<<<<<<<<<<<<<<<<<<<<<<<-o                                  o-<<<<<<<<<<<<<<<<<<<<<<<<<<<",
"                           o-<<<<<<<<<<<<<<<<<<<<<<<<<<-o                                  o-<<<<<<<<<<<<<<<<<<<<<<<<<<<",
"                           o----------------------------o                                  o-,,,,,,,,,,,,,,,,,,,,,,,,,,,",
"                           .oooooooooooooooooooooooooooo.                                  .oooooooooooooooooooooooooooo",
"                                                                                                                        ",
"                                                                                                                        ",
"                                                                                                                        ",
"                                                                                                                        ",
"                                                                                                                        ",
"                                                                                                                        ",
"                           .oooooooooooooooooooooooooooo.                                  .oooooooooooooooooooooooooooo",
"                           o-,,,,,,---------------------o                                  o----------------------------",
"                           o-<<<<<<<<<<<<<<<<<<<<<<<<<<-o                                  o-<<<<<<<<<<<<<<<<<<<<<<<<<<<",
"                           o-<<<<<<<<<<<<<<<<<<<<<<<<<<-o                                  o-<<<<<<<<<<<<<<<<<<<<<<<<<<<",
"ooooooooooooooooooooooo.   #5777777777777777777777777775#   Xoooooooo..ooooooooooooooooX   #5777777777777777777777777777",
"&&&&&&&&&&&&&&&&&&&&&&&&.  $yddddddddddddddddddddddddddy$  .&&&&***********************&X  $iddddddddddddddddddddddddddd",
"***********************&.  =uggggggggggggggggggggggggggu$  o&***************************o  -sggggggggggggggggggggggggggg",
"***********************&.  =uggggggggggggggggggggggggggu$  o&***************************o  -dggggggggggggggggggggggggggg",
";;;;;;;;;;;;;;;-;;;;;;;&o  :fjjjjjjjjjjjjjjjjjjjjjjjjjjf:  o&;;;;;;;;;;;;;;;;;;;;;;;;;;*o  :fhhhhhhhhhhhhhhhhhhhhhhhhhhh",
"<<<<<<<<<<<<<<<<<<<<<<<-o  1bBBBBBBBBBBBBBBBBBBBBBBBBBBc1  o-<<<<<<<<<<<<<<<<<<<<<<<<<<-o  1vNNNNNNNNNNNNNNNNNNNNNNNNNNN",
"<<<<<<<<<<<<<<<<<<<<<<<-o  1nGGGGGGGGGGGGGGGGGGGGGGGGGGn1  o-<<<<<<<<<<<<<<<<<<<<<<<<<<-o  1nGGGGGGGGGGGGGGGGGGGGGGGGGGG",
"<<<<<<<<<<<<<<<<<<<<<<<-o  1nGGGGGGGGGGGGGGGGGGGGGGGGGGn1  o,<<<<<<<<<<<<<<<<<<<<<<<<<<-o  1nGGGGGGGGGGGGGGGGGGGGGGGGGGG",
"<<<<<<<<<<<<<<<<<5<<<<<,o  6MHHHHHHHHHHHHHHHHHHHHHHHHHHM1  o,<<<<<<<<<<<<<<<<<<<<<<<<<<,o  6MHHHHHHHHHHHHHHHHHHHHHHHHHHH",
"444444444444444444444443#  qSKKKKKKKKKKKKKKLLLLLLLLLLLLS0  #3444444444444444444444444442#  qSLLLLLLLLLLLLLLLLLLLLLLLLLLL",
"444444444444444444444443#  qDPPPPPPPPPPPPPPPPPPPPPPPPPPS0  #3444444444444444444444444443#  qDPPPPPPPPPPPPPPPPPPPPPPPPPPP",
"444444444444444444444443#  qDPPPPPPPPPPPPPPPPPPPPPPPPPPS0  #3444444444444444444444444443#  qDPPPPPPPPPPPPPPPPPPPPPPPPPPP",
"444444444444444444444443#  qDPPPPPPPPPPPPPPPPPPPPPPPPPPS0  #3444444444444444444444444443#  qDPPPPPPPPPPPPPPPPPPPPPPPPPPP",
"444444444444444444444443#  qDPPPPPPPPPPPPPPPPPPPPPPPPPPS0  #3444444444444444444444444443#  qDPPPPPPPPPPPPPPPPPPPPPPPPPPP",
"444444444444444444444443#  qDPPPPPPPPPPPPPPPPPPPPPPPPPPS0  #3444444444444444444444444443#  qDPPPPPPPPPPPPPPPPPPPPPPPPPPP",
"444444444444444444444443#  qDPPPPPPPPPPPPPPPPPPPPPPPPPPS0  #3444444444444444444444444443#  qDPPPPPPPPPPPPPPPPPPPPPPPPPPP",
"444444444444444444444443#  qDPPPPPPPPPPPPPPPPPPPPPPPPPPS0  #3444444444444444444444444443#  qDPPPPPPPPPPPPPPPPPPPPPPPPPPP",
"444444444444444444444443#  qDPPPPPPPPPPPPPPPPPPPPPPPPPPS0  #3444444444444444444444444443#  qDPPPPPPPPPPPPPPPPPPPPPPPPPPP",
"444444444444444444444443#  qDPPPPPPPPPPPPPPPPPPPPPPPPPPS0  #3444444444444444444444444443#  qDPPPPPPPPPPPPPPPPPPPPPPPPPPP",
"444444444444444444444443#  qDPPPPPPPPPPPPPPPPPPPPPPPPPPS0  #3444444444444444444444444443#  qDPPPPPPPPPPPPPPPPPPPPPPPPPPP",
"33333333333333333333333>o  8VSSSSSSSSSSSSSSSSSSSSSSSSSSV1  #2333333333333333333333333332O  0CDDDDDDDDJDDDJJJJJJJJJJJJJJJ",
"#######################o   O18888888000000000000qqqqqqq1O  .############################.  @0qqqqqqqqqqqqqqqqqqqqqqqqqqq",
"                                                                                                                        ",
"                                                                                                                        ",
"                                                                                                                        ",
"                                                                                                                        ",
"                                                                                                                        ",
"                                                                                                                        ",
"errrrrrrrwwwwwwwwwwwwww0O  O1666666666611111111161111111O  @0wwwqwwwwqqqqqqwwwqqqqqqqqq0@  O,111111111111111111111111111",
"TYYYTTTTTTTTTTTTTTTTTTTA0  1xmmmmmmnnnnnnnnnnnnnnnnnnnnx,  qFYYYYYYYYYYYYYYYYYYYYYYYYYYA0  1xbbbbbbbbbbbbbbbbbbbbbbbbbbb",
"RRRRRRRRRRRRRRRRRRRRRRRUq  6mGGGGGGGGGGGGGGGGGGGGGGGGGGb1  wTRRRRRRRRRRRRRRRRRRRRRRRRRRUq  6mGGGGGGGGGGGGGGGGGGGGGGGGGGG",
"RRRRRRRRRRRRRRRRRRRRRRRU0  6mGGGGGGGGGGGGGGGGGGGGGGGGGGb1  wTRRRRRRRRRRRRRRRRRRRRRRRRRRUq  6mGGGGGGGGGGGGGGGGGGGGGGGGGGG",
"RRRRRRRRRRRRRRRRRRRRRRRU0  6mGGGGGGGGGGGGGGGGGGGGGGGGGGb1  wTRRRRRRRRRRRRRRRRRRRRRRRRRRUq  6mGGGGGGGGGGGGGGGGGGGGGGGGGGG",
"RRRRRRRRRRRRRRRRRRRRRRRU0  6mGGGGGGGGGGGGGGGGGGGGGGGGGGb1  wTRRRRRRRRRRRRRRRRRRRRRRRRRRUq  6MGGGGGGGGGGGGGGGGGGGGGGGGGGG",
"RRRRRRRRRRRRRRRRRRRRRRRU0  6mGGGGGGGGGGGGGGGGGGGGGGGGGGb1  wTRRRRRRRRRRRRRRRRRRRRRRRRRRUq  6MGGGGGGGGGGGGGGGGGGGGGGGGGGG",
"RRRRRRRRRRRRRRRRRRRRRRRU0  6mGGGGGGGGGGGGGGGGGGGGGGGGGGb1  wTRRRRRRRRRRRRRRRRRRRRRRRRRRUq  6MGGGGGGGGGGGGGGGGGGGGGGGGGGG",
"RRRRRRRRRRRRRRRRRRRRRRRU0  6mGGGGGGGGGGGGGGGGGGGGGGGGGGb1  wTRRRRRRRRRRRRRRRRRRRRRRRRRRU0  6mGGGGGGGGGGGGGGGGGGGGGGGGGGG",
"RRRRRRRRRRRRRRRRRRRRRRRU0  6mGGGGGGGGGGGGGGGGGGGGGGGGGGb1  wTRRRRRRRRRRRRRRRRRRRRRRRRRRU0  6mGGGGGGGGGGGGGGGGGGGGGGGGGGG",
"RRRRRRRRRRRRRRRRRRRRRRRU0  6mGGGGGGGGGGGGGGGGGGGGGGGGGGb1  wTRRRRRRRRRRRRRRRRRRRRRRRRRRU0  6mGGGGGGGGGGGGGGGGGGGGGGGGGGG",
"RRRRRRRRRRRRRRRRRRRRRRRU0  6mGGGGGGGGGGGGGGGGGGGGGGGGGGb1  wTRRRRRRRRRRRRRRRRRRRRRRRRRRU0  6mGGGGGGGGGGGGGGGGGGGGGGGGGGG",
"RRRRRRRRRRRRRRRRRRRRRRRU0  6mGGGGGGGGGGGGGGGGGGGGGGGGGGb1  wTRRRRRRRRRRRRRRRRRRRRRRRRRRU0  6mGGGGGGGGGGGGGGGGGGGGGGGGGGG",
"RRRRRRRRRRRRRRRRRRRRRRRU0  6mGGGGGGGGGGGGGGGGGGGGGGGGGGb1  wTRRRRRRRRRRRRRRRRRRRRRRRRRRU0  6mGGGGGGGGGGGGGGGGGGGGGGGGGGG",
"RRRRRRRRRRRRRRRRRRRRRRRU0  6mGGGGGGGGGGGGGGGGGGGGGGGGGGb1  wTRRRRRRRRRRRRRRRRRRRRRRRRRRU0  6mGGGGGGGGGGGGGGGGGGGGGGGGGGG",
"RRRRRRRRRRRRRRRRRRRRRRRU0  6mGGGGGGGGGGGGGGGGGGGGGGGGGGb1  wTRRRRRRRRRRRRRRRRRRRRRRRRRRU0  6mGGGGGGGGGGGGGGGGGGGGGGGGGGG",
"RRRRRRRRRRRRRRRRRRRRRRRU0  6mGGGGGGGGGGGGGGGGGGGGGGGGGGb1  rTRRRRRRRRRRRRRRRRRRRRRRRRRRU0  6mGGGGGGGGGGGGGGGGGGGGGGGGGGG",
"RRRRRRRRRRRRRRRRRRRRRRRU0  6mGGGGGGGGGGGGGGGGGGGGGGGGGGb1  rTRRRRRRRRRRRRRRRRRRRRRRRRRRU0  6mGGGGGGGGGGGGGGGGGGGGGGGGGGG",
"RRRRRRRRRRRRRRRRRRRRRRRU0  6mGGGGGGGGGGGGGGGGGGGGGGGGGGb1  eTRRRRRRRRRRRRRRRRRRRRRRRRRRU0  6mGGGGGGGGGGGGGGGGGGGGGGGGGGG",
"RRRRRRRRRRRRRRRRRRRRRRRU0  6mGGGGGGGGGGGGGGGGGGGGGGGGGGb1  eTRRRRRRRRRRRRRRRRRRRRRRRRRRU0  6mGGGGGGGGGGGGGGGGGGGGGGGGGGG",
"RRRRRRRRRRRRRRRRRRRRRRRU0  6mGGGGGGGGGGGGGGGGGGGGGGGGGGb1  eTRRRRRRRRRRRRRRRRRRRRRRRRRRU0  6mGGGGGGGGGGGGGGGGGGGGGGGGGGG",
"RRRRRRRRRRRRRRRRRRRRRRRU0  6mGGGGGGGGGGGGGGGGGGGGGGGGGGb1  eTRRRRRRRRRRRRRRRRRRRRRRRRRRU0  6mGGGGGGGGGGGGGGGGGGGGGGGGGGG",
"RRRRRRRRRRRRRRRRRRRRRRRU0  6mGGGGGGGGGGGGGGGGGGGGGGGGGGb1  eTRRRRRRRRRRRRRRRRRRRRRRRRRRU0  6mGGGGGGGGGGGGGGGGGGGGGGGGGGG",
"RRRRRRRRRRRRRRRRRRRRRRRU0  6mGGGGGGGGGGGGGGGGGGGGGGGGGGb1  tTRRRRRRRRRRRRRRRRRRRRRRRRRRU0  6mGGGGGGGGGGGGGGGGGGGGGGGGGGG",
"RRRRRRRRRRRRRRRRRRRRRRRU0  6mGGGGGGGGGGGGGGGGGGGGGGGGGGb1  tTRRRRRRRRRRRRRRRRRRRRRRRRRRU0  6mGGGGGGGGGGGGGGGGGGGGGGGGGGG"
};
